999
"DXF R12 Output" (www.mydxf.blogspot.com)
 0 
SECTION
 2 
HEADER
 9 
$ACADVER
 1 
AC1009
 9 
$EXTMIN
 10 
 0 
 20 
 0 
 9 
$EXTMAX
 10 
 8.5 
 20 
 11 
 0 
ENDSEC
 0 
SECTION
 2 
ENTITIES
0
LINE
8
L
10
14.057100
20
4.997490
11
14.057100
21
1.458630
0
LINE
8
L
10
14.057100
20
1.458630
11
2.278470
21
1.458630
0
LINE
8
L
10
2.278470
20
1.458630
11
2.278470
21
21.116500
0
LINE
8
L
10
2.278470
20
21.116500
11
8.204120
21
21.116500
0
LINE
8
L
10
8.204120
20
21.116500
11
8.204120
21
4.997490
0
LINE
8
L
10
8.204120
20
4.997490
11
14.057100
21
4.997490
0
LINE
8
A
10
25.309900
20
21.116500
11
20.348400
21
21.116500
0
LINE
8
A
10
20.348400
20
21.116500
11
14.986300
21
1.458630
0
LINE
8
A
10
14.986300
20
1.458630
11
17.641100
21
1.458630
0
LINE
8
A
10
17.641100
20
1.458630
11
18.440035
21
4.421450
0
LINE
8
A
10
18.440035
20
4.421450
11
23.601800
21
4.421460
0
LINE
8
A
10
23.601800
20
4.421460
11
24.420771
21
1.458640
0
LINE
8
A
10
24.420771
20
1.458640
11
30.709600
21
1.458630
0
LINE
8
A
10
30.709600
20
1.458630
11
25.309900
21
21.116500
0
LINE
8
A
10
19.329150
20
7.669800
11
21.019690
21
13.855920
0
LINE
8
A
10
21.019690
20
13.855920
11
22.710230
21
7.669800
0
LINE
8
A
10
22.710230
20
7.669800
11
19.329150
21
7.669800
0
LINE
8
1
10
37.779800
20
1.458630
11
32.345000
21
1.458630
0
LINE
8
1
10
32.345000
20
1.458630
11
32.345000
21
17.707800
0
LINE
8
1
10
32.345000
20
17.707800
11
37.779800
21
22.033100
0
LINE
8
1
10
37.779800
20
22.033100
11
37.779800
21
1.458630
0
LINE
8
01
10
50.740500
20
18.469200
11
49.737527
21
19.868061
0
LINE
8
01
10
49.737527
20
19.868061
11
48.618313
21
20.867537
0
LINE
8
01
10
48.618313
20
20.867537
11
47.383092
21
21.467395
0
LINE
8
01
10
47.383092
20
21.467395
11
46.032100
21
21.667400
0
LINE
8
01
10
46.032100
20
21.667400
11
44.678380
21
21.469231
0
LINE
8
01
10
44.678380
20
21.469231
11
43.437126
21
20.874725
0
LINE
8
01
10
43.437126
20
20.874725
11
42.311861
21
19.883881
0
LINE
8
01
10
42.311861
20
19.883881
11
41.306110
21
18.496700
0
LINE
8
01
10
41.306110
20
18.496700
11
40.535076
21
16.935846
0
LINE
8
01
10
40.535076
20
16.935846
11
39.984046
21
15.213924
0
LINE
8
01
10
39.984046
20
15.213924
11
39.653256
21
13.331402
0
LINE
8
01
10
39.653256
20
13.331402
11
39.542940
21
11.288750
0
LINE
8
01
10
39.542940
20
11.288750
11
39.653255
21
9.246098
0
LINE
8
01
10
39.653255
20
9.246098
11
39.984045
21
7.363576
0
LINE
8
01
10
39.984045
20
7.363576
11
40.535075
21
5.641654
0
LINE
8
01
10
40.535075
20
5.641654
11
41.306110
21
4.080800
0
LINE
8
01
10
41.306110
20
4.080800
11
42.310099
21
2.681919
0
LINE
8
01
10
42.310099
20
2.681919
11
43.432427
21
1.682426
0
LINE
8
01
10
43.432427
20
1.682426
11
44.673094
21
1.082558
0
LINE
8
01
10
44.673094
20
1.082558
11
46.032100
21
0.882550
0
LINE
8
01
10
46.032100
20
0.882550
11
47.386605
21
1.082558
0
LINE
8
01
10
47.386605
20
1.082558
11
48.618309
21
1.682426
0
LINE
8
01
10
48.618309
20
1.682426
11
49.734024
21
2.681919
0
LINE
8
01
10
49.734024
20
2.681919
11
50.740560
21
4.080800
0
LINE
8
01
10
50.740560
20
4.080800
11
51.519615
21
5.651514
0
LINE
8
01
10
51.519615
20
5.651514
11
52.076084
21
7.376724
0
LINE
8
01
10
52.076084
20
7.376724
11
52.409966
21
9.255959
0
LINE
8
01
10
52.409966
20
9.255959
11
52.521260
21
11.288750
0
LINE
8
01
10
52.521260
20
11.288750
11
52.409966
21
13.317236
0
LINE
8
01
10
52.409966
20
13.317236
11
52.076085
21
15.187001
0
LINE
8
01
10
52.076085
20
15.187001
11
51.519616
21
16.902740
0
LINE
8
01
10
51.519616
20
16.902740
11
50.740560
21
18.469150
0
LINE
8
01
10
50.740560
20
18.469150
11
50.740500
21
18.469200
0
LINE
8
01
10
48.867130
20
6.622900
11
48.266129
21
5.717093
0
LINE
8
01
10
48.266129
20
5.717093
11
47.571680
21
5.043500
0
LINE
8
01
10
47.571680
20
5.043500
11
46.784251
21
4.602355
0
LINE
8
01
10
46.784251
20
4.602355
11
45.904310
21
4.393890
0
LINE
8
01
10
45.904310
20
4.393890
11
45.904400
21
18.153600
0
LINE
8
01
10
45.904400
20
18.153600
11
46.785396
21
17.946979
0
LINE
8
01
10
46.785396
20
17.946979
11
47.572710
21
17.511195
0
LINE
8
01
10
47.572710
20
17.511195
11
48.266574
21
16.846249
0
LINE
8
01
10
48.266574
20
16.846249
11
48.867220
21
15.952140
0
LINE
8
01
10
48.867220
20
15.952140
11
49.352270
21
14.904005
0
LINE
8
01
10
49.352270
20
14.904005
11
49.699025
21
13.776981
0
LINE
8
01
10
49.699025
20
13.776981
11
49.976710
21
11.286260
0
LINE
8
01
10
49.976710
20
11.286260
11
49.699024
21
8.802109
0
LINE
8
01
10
49.699024
20
8.802109
11
49.352269
21
7.675906
0
LINE
8
01
10
49.352269
20
7.675906
11
48.867220
21
6.620380
0
LINE
8
01
10
48.867220
20
6.620380
11
48.867130
21
6.622900
0
LINE
8
02
10
64.901000
20
18.469200
11
63.897988
21
19.868081
0
LINE
8
02
10
63.897988
20
19.868081
11
62.778749
21
20.867574
0
LINE
8
02
10
62.778749
20
20.867574
11
61.543520
21
21.467442
0
LINE
8
02
10
61.543520
20
21.467442
11
60.192540
21
21.667450
0
LINE
8
02
10
60.192540
20
21.667450
11
58.838820
21
21.469281
0
LINE
8
02
10
58.838820
20
21.469281
11
57.597566
21
20.874775
0
LINE
8
02
10
57.597566
20
20.874775
11
56.472301
21
19.883931
0
LINE
8
02
10
56.472301
20
19.883931
11
55.466550
21
18.496750
0
LINE
8
02
10
55.466550
20
18.496750
11
54.695516
21
16.935896
0
LINE
8
02
10
54.695516
20
16.935896
11
54.144486
21
15.213974
0
LINE
8
02
10
54.144486
20
15.213974
11
53.813696
21
13.331452
0
LINE
8
02
10
53.813696
20
13.331452
11
53.703380
21
11.288800
0
LINE
8
02
10
53.703380
20
11.288800
11
53.813695
21
9.246148
0
LINE
8
02
10
53.813695
20
9.246148
11
54.144485
21
7.363626
0
LINE
8
02
10
54.144485
20
7.363626
11
54.695515
21
5.641704
0
LINE
8
02
10
54.695515
20
5.641704
11
55.466550
21
4.080850
0
LINE
8
02
10
55.466550
20
4.080850
11
56.470539
21
2.681969
0
LINE
8
02
10
56.470539
20
2.681969
11
57.592867
21
1.682476
0
LINE
8
02
10
57.592867
20
1.682476
11
58.833534
21
1.082608
0
LINE
8
02
10
58.833534
20
1.082608
11
60.192540
21
0.882600
0
LINE
8
02
10
60.192540
20
0.882600
11
61.547045
21
1.082608
0
LINE
8
02
10
61.547045
20
1.082608
11
62.778749
21
1.682476
0
LINE
8
02
10
62.778749
20
1.682476
11
63.894464
21
2.681969
0
LINE
8
02
10
63.894464
20
2.681969
11
64.901000
21
4.080850
0
LINE
8
02
10
64.901000
20
4.080850
11
65.680055
21
5.651564
0
LINE
8
02
10
65.680055
20
5.651564
11
66.236524
21
7.376774
0
LINE
8
02
10
66.236524
20
7.376774
11
66.570406
21
9.256009
0
LINE
8
02
10
66.570406
20
9.256009
11
66.681700
21
11.288800
0
LINE
8
02
10
66.681700
20
11.288800
11
66.570406
21
13.317286
0
LINE
8
02
10
66.570406
20
13.317286
11
66.236525
21
15.187051
0
LINE
8
02
10
66.236525
20
15.187051
11
65.680057
21
16.902790
0
LINE
8
02
10
65.680057
20
16.902790
11
64.901000
21
18.469200
0
LINE
8
02
10
64.901000
20
18.469200
11
64.901000
21
18.469200
0
LINE
8
02
10
63.027630
20
6.622900
11
62.426629
21
5.717093
0
LINE
8
02
10
62.426629
20
5.717093
11
61.732180
21
5.043500
0
LINE
8
02
10
61.732180
20
5.043500
11
60.944751
21
4.602355
0
LINE
8
02
10
60.944751
20
4.602355
11
60.064810
21
4.393890
0
LINE
8
02
10
60.064810
20
4.393890
11
60.064800
21
18.153600
0
LINE
8
02
10
60.064800
20
18.153600
11
60.945796
21
17.946979
0
LINE
8
02
10
60.945796
20
17.946979
11
61.733110
21
17.511195
0
LINE
8
02
10
61.733110
20
17.511195
11
62.426974
21
16.846249
0
LINE
8
02
10
62.426974
20
16.846249
11
63.027620
21
15.952140
0
LINE
8
02
10
63.027620
20
15.952140
11
63.512670
21
14.904005
0
LINE
8
02
10
63.512670
20
14.904005
11
63.859425
21
13.776981
0
LINE
8
02
10
63.859425
20
13.776981
11
64.137110
21
11.286260
0
LINE
8
02
10
64.137110
20
11.286260
11
63.859424
21
8.802109
0
LINE
8
02
10
63.859424
20
8.802109
11
63.512669
21
7.675906
0
LINE
8
02
10
63.512669
20
7.675906
11
63.027620
21
6.620380
0
LINE
8
02
10
63.027620
20
6.620380
11
63.027630
21
6.622900
0
LINE
8
K
10
83.028600
20
0.882597
11
79.787780
21
0.604598
0
LINE
8
K
10
79.787780
20
0.604598
11
75.552670
21
9.122398
0
LINE
8
K
10
75.552670
20
9.122398
11
74.152650
21
6.344908
0
LINE
8
K
10
74.152650
20
6.344908
11
74.152600
21
1.208180
0
LINE
8
K
10
74.152600
20
1.208180
11
68.227000
21
1.208180
0
LINE
8
K
10
68.227000
20
1.208180
11
68.227000
21
20.866000
0
LINE
8
K
10
68.227000
20
20.866000
11
74.152600
21
20.866000
0
LINE
8
K
10
74.152600
20
20.866000
11
74.152600
21
12.450900
0
LINE
8
K
10
74.152600
20
12.450900
11
78.608110
21
20.866020
0
LINE
8
K
10
78.608110
20
20.866020
11
81.661100
21
20.866000
0
LINE
8
K
10
81.661100
20
20.866000
11
77.243160
21
12.425830
0
LINE
8
K
10
77.243160
20
12.425830
11
83.028600
21
0.882597
 0 
ENDSEC
 0 
EOF