999
"DXF R12 Output" (www.mydxf.blogspot.com)
 0 
SECTION
 2 
HEADER
 9 
$ACADVER
 1 
AC1009
 9 
$EXTMIN
 10 
 0 
 20 
 0 
 9 
$EXTMAX
 10 
 8.5 
 20 
 11 
 0 
ENDSEC
 0 
SECTION
 2 
ENTITIES
0
LINE
8
Layer 1
10
23.589300
20
7.104600
11
23.589300
21
4.745360
0
LINE
8
Layer 1
10
23.589300
20
4.745360
11
15.736800
21
4.745360
0
LINE
8
Layer 1
10
15.736800
20
4.745360
11
15.736800
21
17.850600
0
LINE
8
Layer 1
10
15.736800
20
17.850600
11
19.687200
21
17.850600
0
LINE
8
Layer 1
10
19.687200
20
17.850600
11
19.687200
21
7.104600
0
LINE
8
Layer 1
10
19.687200
20
7.104600
11
23.589300
21
7.104600
0
LINE
8
Layer 1
10
31.091100
20
17.850600
11
27.783500
21
17.850600
0
LINE
8
Layer 1
10
27.783500
20
17.850600
11
24.208700
21
4.745360
0
LINE
8
Layer 1
10
24.208700
20
4.745360
11
25.978600
21
4.745360
0
LINE
8
Layer 1
10
25.978600
20
4.745360
11
26.511225
21
6.720580
0
LINE
8
Layer 1
10
26.511225
20
6.720580
11
29.952400
21
6.720580
0
LINE
8
Layer 1
10
29.952400
20
6.720580
11
30.498382
21
4.745360
0
LINE
8
Layer 1
10
30.498382
20
4.745360
11
34.690900
21
4.745360
0
LINE
8
Layer 1
10
34.690900
20
4.745360
11
31.091100
21
17.850600
0
LINE
8
Layer 1
10
27.103930
20
8.886140
11
28.230960
21
13.010220
0
LINE
8
Layer 1
10
28.230960
20
13.010220
11
29.357990
21
8.886140
0
LINE
8
Layer 1
10
29.357990
20
8.886140
11
27.103930
21
8.886140
0
LINE
8
Layer 1
10
39.404400
20
4.745360
11
35.781200
21
4.745360
0
LINE
8
Layer 1
10
35.781200
20
4.745360
11
35.781200
21
15.578200
0
LINE
8
Layer 1
10
35.781200
20
15.578200
11
39.404400
21
18.461700
0
LINE
8
Layer 1
10
39.404400
20
18.461700
11
39.404400
21
4.745360
0
LINE
8
Layer 1
10
48.044900
20
16.085800
11
47.376245
21
17.018341
0
LINE
8
Layer 1
10
47.376245
20
17.018341
11
46.630088
21
17.684650
0
LINE
8
Layer 1
10
46.630088
20
17.684650
11
45.806586
21
18.084559
0
LINE
8
Layer 1
10
45.806586
20
18.084559
11
44.905900
21
18.217900
0
LINE
8
Layer 1
10
44.905900
20
18.217900
11
44.003419
21
18.085787
0
LINE
8
Layer 1
10
44.003419
20
18.085787
11
43.175915
21
17.689450
0
LINE
8
Layer 1
10
43.175915
20
17.689450
11
42.425736
21
17.028887
0
LINE
8
Layer 1
10
42.425736
20
17.028887
11
41.755230
21
16.104100
0
LINE
8
Layer 1
10
41.755230
20
16.104100
11
41.241206
21
15.063531
0
LINE
8
Layer 1
10
41.241206
20
15.063531
11
40.873852
21
13.915581
0
LINE
8
Layer 1
10
40.873852
20
13.915581
11
40.653324
21
12.660564
0
LINE
8
Layer 1
10
40.653324
20
12.660564
11
40.579780
21
11.298790
0
LINE
8
Layer 1
10
40.579780
20
11.298790
11
40.653324
21
9.937016
0
LINE
8
Layer 1
10
40.653324
20
9.937016
11
40.873851
21
8.681999
0
LINE
8
Layer 1
10
40.873851
20
8.681999
11
41.241205
21
7.534049
0
LINE
8
Layer 1
10
41.241205
20
7.534049
11
41.755230
21
6.493480
0
LINE
8
Layer 1
10
41.755230
20
6.493480
11
42.424560
21
5.560890
0
LINE
8
Layer 1
10
42.424560
20
5.560890
11
43.172782
21
4.894561
0
LINE
8
Layer 1
10
43.172782
20
4.894561
11
43.999895
21
4.494649
0
LINE
8
Layer 1
10
43.999895
20
4.494649
11
44.905900
21
4.361310
0
LINE
8
Layer 1
10
44.905900
20
4.361310
11
45.808905
21
4.494649
0
LINE
8
Layer 1
10
45.808905
20
4.494649
11
46.630044
21
4.894561
0
LINE
8
Layer 1
10
46.630044
20
4.894561
11
47.373856
21
5.560890
0
LINE
8
Layer 1
10
47.373856
20
5.560890
11
48.044880
21
6.493480
0
LINE
8
Layer 1
10
48.044880
20
6.493480
11
48.564253
21
7.540625
0
LINE
8
Layer 1
10
48.564253
20
7.540625
11
48.935234
21
8.690766
0
LINE
8
Layer 1
10
48.935234
20
8.690766
11
49.157823
21
9.943592
0
LINE
8
Layer 1
10
49.157823
20
9.943592
11
49.232020
21
11.298790
0
LINE
8
Layer 1
10
49.232020
20
11.298790
11
49.157824
21
12.651119
0
LINE
8
Layer 1
10
49.157824
20
12.651119
11
48.935236
21
13.897632
0
LINE
8
Layer 1
10
48.935236
20
13.897632
11
48.564254
21
15.041460
0
LINE
8
Layer 1
10
48.564254
20
15.041460
11
48.044880
21
16.085730
0
LINE
8
Layer 1
10
48.044880
20
16.085730
11
48.044900
21
16.085800
0
LINE
8
Layer 1
10
46.795990
20
8.188260
11
45.932354
21
7.135325
0
LINE
8
Layer 1
10
45.932354
20
7.135325
11
45.407399
21
6.841227
0
LINE
8
Layer 1
10
45.407399
20
6.841227
11
44.820770
21
6.702250
0
LINE
8
Layer 1
10
44.820770
20
6.702250
11
44.820800
21
15.875400
0
LINE
8
Layer 1
10
44.820800
20
15.875400
11
45.408133
21
15.737652
0
LINE
8
Layer 1
10
45.408133
20
15.737652
11
45.933010
21
15.447130
0
LINE
8
Layer 1
10
45.933010
20
15.447130
11
46.796020
21
14.407760
0
LINE
8
Layer 1
10
46.796020
20
14.407760
11
47.350559
21
12.957650
0
LINE
8
Layer 1
10
47.350559
20
12.957650
11
47.535684
21
11.297160
0
LINE
8
Layer 1
10
47.535684
20
11.297160
11
47.350559
21
9.641056
0
LINE
8
Layer 1
10
47.350559
20
9.641056
11
46.796020
21
8.186560
0
LINE
8
Layer 1
10
46.796020
20
8.186560
11
46.795990
21
8.188260
0
LINE
8
Layer 1
10
57.485200
20
16.085800
11
56.816523
21
17.018390
0
LINE
8
Layer 1
10
56.816523
20
17.018390
11
56.070362
21
17.684719
0
LINE
8
Layer 1
10
56.070362
20
17.684719
11
55.246876
21
18.084631
0
LINE
8
Layer 1
10
55.246876
20
18.084631
11
54.346220
21
18.217970
0
LINE
8
Layer 1
10
54.346220
20
18.217970
11
53.443739
21
18.085857
0
LINE
8
Layer 1
10
53.443739
20
18.085857
11
52.616235
21
17.689520
0
LINE
8
Layer 1
10
52.616235
20
17.689520
11
51.866056
21
17.028957
0
LINE
8
Layer 1
10
51.866056
20
17.028957
11
51.195550
21
16.104170
0
LINE
8
Layer 1
10
51.195550
20
16.104170
11
50.681526
21
15.063601
0
LINE
8
Layer 1
10
50.681526
20
15.063601
11
50.314172
21
13.915651
0
LINE
8
Layer 1
10
50.314172
20
13.915651
11
50.093644
21
12.660634
0
LINE
8
Layer 1
10
50.093644
20
12.660634
11
50.020100
21
11.298860
0
LINE
8
Layer 1
10
50.020100
20
11.298860
11
50.093644
21
9.937086
0
LINE
8
Layer 1
10
50.093644
20
9.937086
11
50.314171
21
8.682069
0
LINE
8
Layer 1
10
50.314171
20
8.682069
11
50.681525
21
7.534119
0
LINE
8
Layer 1
10
50.681525
20
7.534119
11
51.195550
21
6.493550
0
LINE
8
Layer 1
10
51.195550
20
6.493550
11
51.864880
21
5.560960
0
LINE
8
Layer 1
10
51.864880
20
5.560960
11
52.613102
21
4.894631
0
LINE
8
Layer 1
10
52.613102
20
4.894631
11
53.440215
21
4.494719
0
LINE
8
Layer 1
10
53.440215
20
4.494719
11
54.346220
21
4.361380
0
LINE
8
Layer 1
10
54.346220
20
4.361380
11
55.249225
21
4.494719
0
LINE
8
Layer 1
10
55.249225
20
4.494719
11
56.070364
21
4.894631
0
LINE
8
Layer 1
10
56.070364
20
4.894631
11
56.814176
21
5.560960
0
LINE
8
Layer 1
10
56.814176
20
5.560960
11
57.485200
21
6.493550
0
LINE
8
Layer 1
10
57.485200
20
6.493550
11
58.004573
21
7.540695
0
LINE
8
Layer 1
10
58.004573
20
7.540695
11
58.375554
21
8.690836
0
LINE
8
Layer 1
10
58.375554
20
8.690836
11
58.598143
21
9.943662
0
LINE
8
Layer 1
10
58.598143
20
9.943662
11
58.672340
21
11.298860
0
LINE
8
Layer 1
10
58.672340
20
11.298860
11
58.598144
21
12.651189
0
LINE
8
Layer 1
10
58.598144
20
12.651189
11
58.375556
21
13.897702
0
LINE
8
Layer 1
10
58.375556
20
13.897702
11
58.004574
21
15.041530
0
LINE
8
Layer 1
10
58.004574
20
15.041530
11
57.485200
21
16.085800
0
LINE
8
Layer 1
10
57.485200
20
16.085800
11
57.485200
21
16.085800
0
LINE
8
Layer 1
10
56.236290
20
8.188260
11
55.372654
21
7.135325
0
LINE
8
Layer 1
10
55.372654
20
7.135325
11
54.847699
21
6.841227
0
LINE
8
Layer 1
10
54.847699
20
6.841227
11
54.261070
21
6.702250
0
LINE
8
Layer 1
10
54.261070
20
6.702250
11
54.261100
21
15.875400
0
LINE
8
Layer 1
10
54.261100
20
15.875400
11
54.848433
21
15.737652
0
LINE
8
Layer 1
10
54.848433
20
15.737652
11
55.373310
21
15.447130
0
LINE
8
Layer 1
10
55.373310
20
15.447130
11
56.236320
21
14.407760
0
LINE
8
Layer 1
10
56.236320
20
14.407760
11
56.790859
21
12.957650
0
LINE
8
Layer 1
10
56.790859
20
12.957650
11
56.975984
21
11.297160
0
LINE
8
Layer 1
10
56.975984
20
11.297160
11
56.790859
21
9.641056
0
LINE
8
Layer 1
10
56.790859
20
9.641056
11
56.236320
21
8.186560
0
LINE
8
Layer 1
10
56.236320
20
8.186560
11
56.236290
21
8.188260
0
LINE
8
Layer 1
10
69.570300
20
4.361340
11
67.409750
21
4.176007
0
LINE
8
Layer 1
10
67.409750
20
4.176007
11
64.586340
21
9.854557
0
LINE
8
Layer 1
10
64.586340
20
9.854557
11
63.652994
21
8.002897
0
LINE
8
Layer 1
10
63.652994
20
8.002897
11
63.653000
21
4.578390
0
LINE
8
Layer 1
10
63.653000
20
4.578390
11
59.702600
21
4.578390
0
LINE
8
Layer 1
10
59.702600
20
4.578390
11
59.702600
21
17.683600
0
LINE
8
Layer 1
10
59.702600
20
17.683600
11
63.653000
21
17.683600
0
LINE
8
Layer 1
10
63.653000
20
17.683600
11
63.653000
21
12.073500
0
LINE
8
Layer 1
10
63.653000
20
12.073500
11
66.623340
21
17.683590
0
LINE
8
Layer 1
10
66.623340
20
17.683590
11
68.658700
21
17.683600
0
LINE
8
Layer 1
10
68.658700
20
17.683600
11
65.713400
21
12.056810
0
LINE
8
Layer 1
10
65.713400
20
12.056810
11
69.570300
21
4.361340
 0 
ENDSEC
 0 
EOF