  0
SECTION
  2
HEADER
  9
$ACADVER
  1
AC1014
  9
$HANDSEED
  5
FFFF
  9
$INSUNITS
 70
     0
  9
$MEASUREMENT
 70
     1
  0
ENDSEC
  0
SECTION
  2
TABLES
  0
TABLE
  2
VPORT
  5
8
330
0
100
AcDbSymbolTable
 70
     4
  0
VPORT
  5
2E
330
8
100
AcDbSymbolTableRecord
100
AcDbViewportTableRecord
  2
*ACTIVE
 70
     0
 10
0.0
 20
0.0
 11
1.0
 21
1.0
 12
210.0
 22
148.5
 13
0.0
 23
0.0
 14
10.0
 24
10.0
 15
10.0
 25
10.0
 16
0.0
 26
0.0
 36
1.0
 17
0.0
 27
0.0
 37
0.0
 40
341.0
 41
1.24
 42
50.0
 43
0.0
 44
0.0
 50
0.0
 51
0.0
 71
     0
 72
   100
 73
     1
 74
     3
 75
     0
 76
     0
 77
     0
 78
     0
  0
ENDTAB
  0
TABLE
  2
LTYPE
  5
5
330
0
100
AcDbSymbolTable
 70
     1
  0
LTYPE
  5
14
330
5
100
AcDbSymbolTableRecord
100
AcDbLinetypeTableRecord
  2
BYBLOCK
 70
     0
  3

 72
    65
 73
     0
 40
0.0
  0
LTYPE
  5
15
330
5
100
AcDbSymbolTableRecord
100
AcDbLinetypeTableRecord
  2
BYLAYER
 70
     0
  3

 72
    65
 73
     0
 40
0.0
  0
LTYPE
  5
16
330
5
100
AcDbSymbolTableRecord
100
AcDbLinetypeTableRecord
  2
CONTINUOUS
 70
     0
  3
Solid line
 72
    65
 73
     0
 40
0.0
  0
ENDTAB
  0
TABLE
  2
LAYER
  5
2
100
AcDbSymbolTable
 70
1
  0
LAYER
  5
50
100
AcDbSymbolTableRecord
100
AcDbLayerTableRecord
  2
0
 70
0
  6
CONTINUOUS
  0
ENDTAB
  0
TABLE
  2
STYLE
  5
3
330
0
100
AcDbSymbolTable
 70
     1
  0
STYLE
  5
11
330
3
100
AcDbSymbolTableRecord
100
AcDbTextStyleTableRecord
  2
STANDARD
 70
     0
 40
0.0
 41
1.0
 50
0.0
 71
     0
 42
2.5
  3
txt
  4

  0
ENDTAB
  0
TABLE
  2
VIEW
  5
6
330
0
100
AcDbSymbolTable
 70
     0
  0
ENDTAB
  0
TABLE
  2
UCS
  5
7
330
0
100
AcDbSymbolTable
 70
     0
  0
ENDTAB
  0
TABLE
  2
APPID
  5
9
330
0
100
AcDbSymbolTable
 70
     2
  0
APPID
  5
12
330
9
100
AcDbSymbolTableRecord
100
AcDbRegAppTableRecord
  2
ACAD
 70
     0
  0
ENDTAB
  0
TABLE
  2
DIMSTYLE
  5
A
330
0
100
AcDbSymbolTable
 70
     1
  0
DIMSTYLE
105
27
330
A
100
AcDbSymbolTableRecord
100
AcDbDimStyleTableRecord
  2
ISO-25
 70
     0
  3

  4

  5

  6

  7

 40
1.0
 41
2.5
 42
0.625
 43
3.75
 44
1.25
 45
0.0
 46
0.0
 47
0.0
 48
0.0
140
2.5
141
2.5
142
0.0
143
0.03937007874016
144
1.0
145
0.0
146
1.0
147
0.625
 71
     0
 72
     0
 73
     0
 74
     0
 75
     0
 76
     0
 77
     1
 78
     8
170
     0
171
     3
172
     1
173
     0
174
     0
175
     0
176
     0
177
     0
178
     0
270
     2
271
     2
272
     2
273
     2
274
     3
340
11
275
     0
280
     0
281
     0
282
     0
283
     0
284
     8
285
     0
286
     0
287
     3
288
     0
  0
ENDTAB
  0
TABLE
  2
BLOCK_RECORD
  5
1
330
0
100
AcDbSymbolTable
 70
     1
  0
BLOCK_RECORD
  5
1F
330
1
100
AcDbSymbolTableRecord
100
AcDbBlockTableRecord
  2
*MODEL_SPACE
  0
BLOCK_RECORD
  5
1B
330
1
100
AcDbSymbolTableRecord
100
AcDbBlockTableRecord
  2
*PAPER_SPACE
  0
ENDTAB
  0
ENDSEC
  0
SECTION
  2
BLOCKS
  0
BLOCK
  5
20
330
1F
100
AcDbEntity
  8
0
100
AcDbBlockBegin
  2
*MODEL_SPACE
 70
     0
 10
0.0
 20
0.0
 30
0.0
  3
*MODEL_SPACE
  1

  0
ENDBLK
  5
21
330
1F
100
AcDbEntity
  8
0
100
AcDbBlockEnd
  0
BLOCK
  5
1C
330
1B
100
AcDbEntity
 67
     1
  8
0
100
AcDbBlockBegin
  2
*PAPER_SPACE
  1

  0
ENDBLK
  5
1D
330
1B
100
AcDbEntity
 67
     1
  8
0
100
AcDbBlockEnd
  0
ENDSEC
  0
SECTION
  2
ENTITIES
  0
SPLINE
  5
100
100
AcDbEntity
  8
0
 62
7
100
AcDbSpline
 70
8
 71
3
 72
8
 73
4
 74
0
 40
0
 40
0
 40
0
 40
0
 40
1
 40
1
 40
1
 40
1
 10
-9053.646136
 20
-1575.976825
 30
0.0
 10
-9130.079807
 20
-1575.976825
 30
0.0
 10
-9198.987326
 20
-1622.019358
 30
0.0
 10
-9228.237226
 20
-1692.634862
 30
0.0
  0
SPLINE
  5
101
100
AcDbEntity
  8
0
 62
7
100
AcDbSpline
 70
8
 71
3
 72
8
 73
4
 74
0
 40
0
 40
0
 40
0
 40
0
 40
1
 40
1
 40
1
 40
1
 10
-9228.237226
 20
-1692.634862
 30
0.0
 10
-9257.487125
 20
-1763.250366
 30
0.0
 10
-9241.319138
 20
-1844.532327
 30
0.0
 10
-9187.272371
 20
-1898.579094
 30
0.0
  0
SPLINE
  5
102
100
AcDbEntity
  8
0
 62
7
100
AcDbSpline
 70
8
 71
3
 72
8
 73
4
 74
0
 40
0
 40
0
 40
0
 40
0
 40
1
 40
1
 40
1
 40
1
 10
-9187.272371
 20
-1898.579094
 30
0.0
 10
-9133.225604
 20
-1952.625861
 30
0.0
 10
-9051.943643
 20
-1968.793849
 30
0.0
 10
-8981.328138
 20
-1939.543949
 30
0.0
  0
SPLINE
  5
103
100
AcDbEntity
  8
0
 62
7
100
AcDbSpline
 70
8
 71
3
 72
8
 73
4
 74
0
 40
0
 40
0
 40
0
 40
0
 40
1
 40
1
 40
1
 40
1
 10
-8981.328138
 20
-1939.543949
 30
0.0
 10
-8910.712634
 20
-1910.294050
 30
0.0
 10
-8864.670102
 20
-1841.386530
 30
0.0
 10
-8864.670102
 20
-1764.952859
 30
0.0
  0
SPLINE
  5
104
100
AcDbEntity
  8
0
 62
7
100
AcDbSpline
 70
8
 71
3
 72
8
 73
4
 74
0
 40
0
 40
0
 40
0
 40
0
 40
1
 40
1
 40
1
 40
1
 10
-8864.670102
 20
-1764.952859
 30
0.0
 10
-8864.670102
 20
-1660.584278
 30
0.0
 10
-8949.277554
 20
-1575.976825
 30
0.0
 10
-9053.646136
 20
-1575.976825
 30
0.0
  0
LWPOLYLINE
  5
105
100
AcDbEntity
  8
0
 62
7
100
AcDbPolyline
 90
6
 70
1
 10
-6776.819080
 20
-1490.907280
 30
0.0
 10
-6776.819080
 20
-2349.502600
 30
0.0
 10
-9634.550000
 20
-2349.502600
 30
0.0
 10
-9634.550000
 20
2419.863760
 30
0.0
 10
-8196.873760
 20
2419.863760
 30
0.0
 10
-8196.873760
 20
-1490.907280
 30
0.0
  0
SPLINE
  5
106
100
AcDbEntity
  8
0
 62
7
100
AcDbSpline
 70
8
 71
3
 72
8
 73
4
 74
0
 40
0
 40
0
 40
0
 40
0
 40
1
 40
1
 40
1
 40
1
 10
-9068.837136
 20
757.968415
 30
0.0
 10
-9145.270807
 20
757.968415
 30
0.0
 10
-9214.178326
 20
711.925882
 30
0.0
 10
-9243.428226
 20
641.310378
 30
0.0
  0
SPLINE
  5
107
100
AcDbEntity
  8
0
 62
7
100
AcDbSpline
 70
8
 71
3
 72
8
 73
4
 74
0
 40
0
 40
0
 40
0
 40
0
 40
1
 40
1
 40
1
 40
1
 10
-9243.428226
 20
641.310378
 30
0.0
 10
-9272.678125
 20
570.694874
 30
0.0
 10
-9256.510138
 20
489.412913
 30
0.0
 10
-9202.463371
 20
435.366146
 30
0.0
  0
SPLINE
  5
108
100
AcDbEntity
  8
0
 62
7
100
AcDbSpline
 70
8
 71
3
 72
8
 73
4
 74
0
 40
0
 40
0
 40
0
 40
0
 40
1
 40
1
 40
1
 40
1
 10
-9202.463371
 20
435.366146
 30
0.0
 10
-9148.416604
 20
381.319379
 30
0.0
 10
-9067.134643
 20
365.151391
 30
0.0
 10
-8996.519138
 20
394.401291
 30
0.0
  0
SPLINE
  5
109
100
AcDbEntity
  8
0
 62
7
100
AcDbSpline
 70
8
 71
3
 72
8
 73
4
 74
0
 40
0
 40
0
 40
0
 40
0
 40
1
 40
1
 40
1
 40
1
 10
-8996.519138
 20
394.401291
 30
0.0
 10
-8925.903634
 20
423.651190
 30
0.0
 10
-8879.861102
 20
492.558710
 30
0.0
 10
-8879.861102
 20
568.992381
 30
0.0
  0
SPLINE
  5
10a
100
AcDbEntity
  8
0
 62
7
100
AcDbSpline
 70
8
 71
3
 72
8
 73
4
 74
0
 40
0
 40
0
 40
0
 40
0
 40
1
 40
1
 40
1
 40
1
 10
-8879.861102
 20
568.992381
 30
0.0
 10
-8879.861102
 20
673.360962
 30
0.0
 10
-8964.468554
 20
757.968415
 30
0.0
 10
-9068.837136
 20
757.968415
 30
0.0
  0
LWPOLYLINE
  5
10b
100
AcDbEntity
  8
0
 62
7
100
AcDbPolyline
 90
1
 70
1
 10
-9053.646136
 20
-1575.976825
 30
0.0
  0
SPLINE
  5
10c
100
AcDbEntity
  8
0
 62
7
100
AcDbSpline
 70
8
 71
3
 72
8
 73
4
 74
0
 40
0
 40
0
 40
0
 40
0
 40
1
 40
1
 40
1
 40
1
 10
-9068.837136
 20
1952.588594
 30
0.0
 10
-9145.270807
 20
1952.588594
 30
0.0
 10
-9214.178326
 20
1906.546061
 30
0.0
 10
-9243.428226
 20
1835.930557
 30
0.0
  0
SPLINE
  5
10d
100
AcDbEntity
  8
0
 62
7
100
AcDbSpline
 70
8
 71
3
 72
8
 73
4
 74
0
 40
0
 40
0
 40
0
 40
0
 40
1
 40
1
 40
1
 40
1
 10
-9243.428226
 20
1835.930557
 30
0.0
 10
-9272.678125
 20
1765.315053
 30
0.0
 10
-9256.510138
 20
1684.033092
 30
0.0
 10
-9202.463371
 20
1629.986325
 30
0.0
  0
SPLINE
  5
10e
100
AcDbEntity
  8
0
 62
7
100
AcDbSpline
 70
8
 71
3
 72
8
 73
4
 74
0
 40
0
 40
0
 40
0
 40
0
 40
1
 40
1
 40
1
 40
1
 10
-9202.463371
 20
1629.986325
 30
0.0
 10
-9148.416604
 20
1575.939558
 30
0.0
 10
-9067.134643
 20
1559.771571
 30
0.0
 10
-8996.519138
 20
1589.021470
 30
0.0
  0
SPLINE
  5
10f
100
AcDbEntity
  8
0
 62
7
100
AcDbSpline
 70
8
 71
3
 72
8
 73
4
 74
0
 40
0
 40
0
 40
0
 40
0
 40
1
 40
1
 40
1
 40
1
 10
-8996.519138
 20
1589.021470
 30
0.0
 10
-8925.903634
 20
1618.271370
 30
0.0
 10
-8879.861102
 20
1687.178889
 30
0.0
 10
-8879.861102
 20
1763.612560
 30
0.0
  0
SPLINE
  5
110
100
AcDbEntity
  8
0
 62
7
100
AcDbSpline
 70
8
 71
3
 72
8
 73
4
 74
0
 40
0
 40
0
 40
0
 40
0
 40
1
 40
1
 40
1
 40
1
 10
-8879.861102
 20
1763.612560
 30
0.0
 10
-8879.861102
 20
1867.981142
 30
0.0
 10
-8964.468554
 20
1952.588594
 30
0.0
 10
-9068.837136
 20
1952.588594
 30
0.0
  0
LWPOLYLINE
  5
111
100
AcDbEntity
  8
0
 62
7
100
AcDbPolyline
 90
1
 70
1
 10
-9068.837136
 20
757.968415
 30
0.0
  0
SPLINE
  5
112
100
AcDbEntity
  8
0
 62
7
100
AcDbSpline
 70
8
 71
3
 72
8
 73
4
 74
0
 40
0
 40
0
 40
0
 40
0
 40
1
 40
1
 40
1
 40
1
 10
-9053.646136
 20
-378.318446
 30
0.0
 10
-9130.079807
 20
-378.318446
 30
0.0
 10
-9198.987326
 20
-424.360979
 30
0.0
 10
-9228.237226
 20
-494.976483
 30
0.0
  0
SPLINE
  5
113
100
AcDbEntity
  8
0
 62
7
100
AcDbSpline
 70
8
 71
3
 72
8
 73
4
 74
0
 40
0
 40
0
 40
0
 40
0
 40
1
 40
1
 40
1
 40
1
 10
-9228.237226
 20
-494.976483
 30
0.0
 10
-9257.487125
 20
-565.591987
 30
0.0
 10
-9241.319138
 20
-646.873948
 30
0.0
 10
-9187.272371
 20
-700.920715
 30
0.0
  0
SPLINE
  5
114
100
AcDbEntity
  8
0
 62
7
100
AcDbSpline
 70
8
 71
3
 72
8
 73
4
 74
0
 40
0
 40
0
 40
0
 40
0
 40
1
 40
1
 40
1
 40
1
 10
-9187.272371
 20
-700.920715
 30
0.0
 10
-9133.225604
 20
-754.967482
 30
0.0
 10
-9051.943643
 20
-771.135469
 30
0.0
 10
-8981.328138
 20
-741.885570
 30
0.0
  0
SPLINE
  5
115
100
AcDbEntity
  8
0
 62
7
100
AcDbSpline
 70
8
 71
3
 72
8
 73
4
 74
0
 40
0
 40
0
 40
0
 40
0
 40
1
 40
1
 40
1
 40
1
 10
-8981.328138
 20
-741.885570
 30
0.0
 10
-8910.712634
 20
-712.635670
 30
0.0
 10
-8864.670102
 20
-643.728151
 30
0.0
 10
-8864.670102
 20
-567.294480
 30
0.0
  0
SPLINE
  5
116
100
AcDbEntity
  8
0
 62
7
100
AcDbSpline
 70
8
 71
3
 72
8
 73
4
 74
0
 40
0
 40
0
 40
0
 40
0
 40
1
 40
1
 40
1
 40
1
 10
-8864.670102
 20
-567.294480
 30
0.0
 10
-8864.670102
 20
-462.925898
 30
0.0
 10
-8949.277554
 20
-378.318446
 30
0.0
 10
-9053.646136
 20
-378.318446
 30
0.0
  0
LWPOLYLINE
  5
117
100
AcDbEntity
  8
0
 62
7
100
AcDbPolyline
 90
1
 70
1
 10
-9068.837136
 20
1952.588594
 30
0.0
  0
SPLINE
  5
118
100
AcDbEntity
  8
0
 62
7
100
AcDbSpline
 70
8
 71
3
 72
8
 73
4
 74
0
 40
0
 40
0
 40
0
 40
0
 40
1
 40
1
 40
1
 40
1
 10
-7653.643722
 20
-1614.865725
 30
0.0
 10
-7730.077392
 20
-1614.865725
 30
0.0
 10
-7798.984912
 20
-1660.908257
 30
0.0
 10
-7828.234811
 20
-1731.523761
 30
0.0
  0
SPLINE
  5
119
100
AcDbEntity
  8
0
 62
7
100
AcDbSpline
 70
8
 71
3
 72
8
 73
4
 74
0
 40
0
 40
0
 40
0
 40
0
 40
1
 40
1
 40
1
 40
1
 10
-7828.234811
 20
-1731.523761
 30
0.0
 10
-7857.484711
 20
-1802.139265
 30
0.0
 10
-7841.316724
 20
-1883.421227
 30
0.0
 10
-7787.269957
 20
-1937.467994
 30
0.0
  0
SPLINE
  5
11a
100
AcDbEntity
  8
0
 62
7
100
AcDbSpline
 70
8
 71
3
 72
8
 73
4
 74
0
 40
0
 40
0
 40
0
 40
0
 40
1
 40
1
 40
1
 40
1
 10
-7787.269957
 20
-1937.467994
 30
0.0
 10
-7733.223190
 20
-1991.514761
 30
0.0
 10
-7651.941228
 20
-2007.682748
 30
0.0
 10
-7581.325724
 20
-1978.432848
 30
0.0
  0
SPLINE
  5
11b
100
AcDbEntity
  8
0
 62
7
100
AcDbSpline
 70
8
 71
3
 72
8
 73
4
 74
0
 40
0
 40
0
 40
0
 40
0
 40
1
 40
1
 40
1
 40
1
 10
-7581.325724
 20
-1978.432848
 30
0.0
 10
-7510.710220
 20
-1949.182949
 30
0.0
 10
-7464.667688
 20
-1880.275429
 30
0.0
 10
-7464.667688
 20
-1803.841758
 30
0.0
  0
SPLINE
  5
11c
100
AcDbEntity
  8
0
 62
7
100
AcDbSpline
 70
8
 71
3
 72
8
 73
4
 74
0
 40
0
 40
0
 40
0
 40
0
 40
1
 40
1
 40
1
 40
1
 10
-7464.667688
 20
-1803.841758
 30
0.0
 10
-7464.667688
 20
-1699.473177
 30
0.0
 10
-7549.275140
 20
-1614.865725
 30
0.0
 10
-7653.643722
 20
-1614.865725
 30
0.0
  0
LWPOLYLINE
  5
11d
100
AcDbEntity
  8
0
 62
7
100
AcDbPolyline
 90
1
 70
1
 10
-9053.646136
 20
-378.318446
 30
0.0
  0
LWPOLYLINE
  5
11e
100
AcDbEntity
  8
0
 62
7
100
AcDbPolyline
 90
1
 70
1
 10
-7653.643722
 20
-1614.865725
 30
0.0
  0
LWPOLYLINE
  5
11f
100
AcDbEntity
  8
0
 62
7
100
AcDbPolyline
 90
8
 70
1
 10
-4046.692560
 20
2419.863760
 30
0.0
 10
-5250.427400
 20
2419.863760
 30
0.0
 10
-6551.384640
 20
-2349.502600
 30
0.0
 10
-5907.286240
 20
-2349.502600
 30
0.0
 10
-5713.449080
 20
-1630.664480
 30
0.0
 10
-4461.103040
 20
-1630.664480
 30
0.0
 10
-4262.404760
 20
-2349.502600
 30
0.0
 10
-2736.620720
 20
-2349.502600
 30
0.0
  0
SPLINE
  5
120
100
AcDbEntity
  8
0
 62
7
100
AcDbSpline
 70
8
 71
3
 72
8
 73
4
 74
0
 40
0
 40
0
 40
0
 40
0
 40
1
 40
1
 40
1
 40
1
 10
-6144.873480
 20
-1631.272248
 30
0.0
 10
-6221.307151
 20
-1631.272248
 30
0.0
 10
-6290.214670
 20
-1677.314780
 30
0.0
 10
-6319.464570
 20
-1747.930284
 30
0.0
  0
SPLINE
  5
121
100
AcDbEntity
  8
0
 62
7
100
AcDbSpline
 70
8
 71
3
 72
8
 73
4
 74
0
 40
0
 40
0
 40
0
 40
0
 40
1
 40
1
 40
1
 40
1
 10
-6319.464570
 20
-1747.930284
 30
0.0
 10
-6348.714469
 20
-1818.545788
 30
0.0
 10
-6332.546482
 20
-1899.827750
 30
0.0
 10
-6278.499715
 20
-1953.874517
 30
0.0
  0
SPLINE
  5
122
100
AcDbEntity
  8
0
 62
7
100
AcDbSpline
 70
8
 71
3
 72
8
 73
4
 74
0
 40
0
 40
0
 40
0
 40
0
 40
1
 40
1
 40
1
 40
1
 10
-6278.499715
 20
-1953.874517
 30
0.0
 10
-6224.452948
 20
-2007.921284
 30
0.0
 10
-6143.170987
 20
-2024.089271
 30
0.0
 10
-6072.555483
 20
-1994.839371
 30
0.0
  0
SPLINE
  5
123
100
AcDbEntity
  8
0
 62
7
100
AcDbSpline
 70
8
 71
3
 72
8
 73
4
 74
0
 40
0
 40
0
 40
0
 40
0
 40
1
 40
1
 40
1
 40
1
 10
-6072.555483
 20
-1994.839371
 30
0.0
 10
-6001.939979
 20
-1965.589472
 30
0.0
 10
-5955.897446
 20
-1896.681952
 30
0.0
 10
-5955.897446
 20
-1820.248282
 30
0.0
  0
SPLINE
  5
124
100
AcDbEntity
  8
0
 62
7
100
AcDbSpline
 70
8
 71
3
 72
8
 73
4
 74
0
 40
0
 40
0
 40
0
 40
0
 40
1
 40
1
 40
1
 40
1
 10
-5955.897446
 20
-1820.248282
 30
0.0
 10
-5955.897446
 20
-1770.128721
 30
0.0
 10
-5975.807364
 20
-1722.061927
 30
0.0
 10
-6011.247245
 20
-1686.622046
 30
0.0
  0
SPLINE
  5
125
100
AcDbEntity
  8
0
 62
7
100
AcDbSpline
 70
8
 71
3
 72
8
 73
4
 74
0
 40
0
 40
0
 40
0
 40
0
 40
1
 40
1
 40
1
 40
1
 10
-6011.247245
 20
-1686.622046
 30
0.0
 10
-6046.687126
 20
-1651.182165
 30
0.0
 10
-6094.753920
 20
-1631.272248
 30
0.0
 10
-6144.873480
 20
-1631.272248
 30
0.0
  0
LWPOLYLINE
  5
126
100
AcDbEntity
  8
0
 62
7
100
AcDbPolyline
 90
3
 70
1
 10
-5497.736880
 20
-842.555400
 30
0.0
 10
-5087.579880
 20
658.315400
 30
0.0
 10
-4677.422880
 20
-842.555400
 30
0.0
  0
SPLINE
  5
127
100
AcDbEntity
  8
0
 62
7
100
AcDbSpline
 70
8
 71
3
 72
8
 73
4
 74
0
 40
0
 40
0
 40
0
 40
0
 40
1
 40
1
 40
1
 40
1
 10
-5156.243382
 20
-1005.402865
 30
0.0
 10
-5260.611964
 20
-1005.402865
 30
0.0
 10
-5345.219416
 20
-1090.010318
 30
0.0
 10
-5345.219416
 20
-1194.378899
 30
0.0
  0
SPLINE
  5
128
100
AcDbEntity
  8
0
 62
7
100
AcDbSpline
 70
8
 71
3
 72
8
 73
4
 74
0
 40
0
 40
0
 40
0
 40
0
 40
1
 40
1
 40
1
 40
1
 10
-5345.219416
 20
-1194.378899
 30
0.0
 10
-5345.219416
 20
-1298.747481
 30
0.0
 10
-5260.611964
 20
-1383.354933
 30
0.0
 10
-5156.243382
 20
-1383.354933
 30
0.0
  0
SPLINE
  5
129
100
AcDbEntity
  8
0
 62
7
100
AcDbSpline
 70
8
 71
3
 72
8
 73
4
 74
0
 40
0
 40
0
 40
0
 40
0
 40
1
 40
1
 40
1
 40
1
 10
-5156.243382
 20
-1383.354933
 30
0.0
 10
-5051.874801
 20
-1383.354933
 30
0.0
 10
-4967.267348
 20
-1298.747481
 30
0.0
 10
-4967.267348
 20
-1194.378899
 30
0.0
  0
SPLINE
  5
12a
100
AcDbEntity
  8
0
 62
7
100
AcDbSpline
 70
8
 71
3
 72
8
 73
4
 74
0
 40
0
 40
0
 40
0
 40
0
 40
1
 40
1
 40
1
 40
1
 10
-4967.267348
 20
-1194.378899
 30
0.0
 10
-4967.267348
 20
-1144.259339
 30
0.0
 10
-4987.177266
 20
-1096.192545
 30
0.0
 10
-5022.617147
 20
-1060.752664
 30
0.0
  0
SPLINE
  5
12b
100
AcDbEntity
  8
0
 62
7
100
AcDbSpline
 70
8
 71
3
 72
8
 73
4
 74
0
 40
0
 40
0
 40
0
 40
0
 40
1
 40
1
 40
1
 40
1
 10
-5022.617147
 20
-1060.752664
 30
0.0
 10
-5058.057028
 20
-1025.312783
 30
0.0
 10
-5106.123822
 20
-1005.402865
 30
0.0
 10
-5156.243382
 20
-1005.402865
 30
0.0
  0
LWPOLYLINE
  5
12c
100
AcDbEntity
  8
0
 62
7
100
AcDbPolyline
 90
1
 70
1
 10
-6144.873480
 20
-1631.272248
 30
0.0
  0
SPLINE
  5
12d
100
AcDbEntity
  8
0
 62
7
100
AcDbSpline
 70
8
 71
3
 72
8
 73
4
 74
0
 40
0
 40
0
 40
0
 40
0
 40
1
 40
1
 40
1
 40
1
 10
-5765.098480
 20
-152.884067
 30
0.0
 10
-5841.532151
 20
-152.884067
 30
0.0
 10
-5910.439670
 20
-198.926599
 30
0.0
 10
-5939.689570
 20
-269.542103
 30
0.0
  0
SPLINE
  5
12e
100
AcDbEntity
  8
0
 62
7
100
AcDbSpline
 70
8
 71
3
 72
8
 73
4
 74
0
 40
0
 40
0
 40
0
 40
0
 40
1
 40
1
 40
1
 40
1
 10
-5939.689570
 20
-269.542103
 30
0.0
 10
-5968.939469
 20
-340.157608
 30
0.0
 10
-5952.771482
 20
-421.439569
 30
0.0
 10
-5898.724715
 20
-475.486336
 30
0.0
  0
SPLINE
  5
12f
100
AcDbEntity
  8
0
 62
7
100
AcDbSpline
 70
8
 71
3
 72
8
 73
4
 74
0
 40
0
 40
0
 40
0
 40
0
 40
1
 40
1
 40
1
 40
1
 10
-5898.724715
 20
-475.486336
 30
0.0
 10
-5844.677948
 20
-529.533103
 30
0.0
 10
-5763.395987
 20
-545.701090
 30
0.0
 10
-5692.780483
 20
-516.451191
 30
0.0
  0
SPLINE
  5
130
100
AcDbEntity
  8
0
 62
7
100
AcDbSpline
 70
8
 71
3
 72
8
 73
4
 74
0
 40
0
 40
0
 40
0
 40
0
 40
1
 40
1
 40
1
 40
1
 10
-5692.780483
 20
-516.451191
 30
0.0
 10
-5622.164979
 20
-487.201291
 30
0.0
 10
-5576.122446
 20
-418.293772
 30
0.0
 10
-5576.122446
 20
-341.860101
 30
0.0
  0
SPLINE
  5
131
100
AcDbEntity
  8
0
 62
7
100
AcDbSpline
 70
8
 71
3
 72
8
 73
4
 74
0
 40
0
 40
0
 40
0
 40
0
 40
1
 40
1
 40
1
 40
1
 10
-5576.122446
 20
-341.860101
 30
0.0
 10
-5576.122446
 20
-291.740540
 30
0.0
 10
-5596.032364
 20
-243.673747
 30
0.0
 10
-5631.472245
 20
-208.233866
 30
0.0
  0
SPLINE
  5
132
100
AcDbEntity
  8
0
 62
7
100
AcDbSpline
 70
8
 71
3
 72
8
 73
4
 74
0
 40
0
 40
0
 40
0
 40
0
 40
1
 40
1
 40
1
 40
1
 10
-5631.472245
 20
-208.233866
 30
0.0
 10
-5666.912126
 20
-172.793985
 30
0.0
 10
-5714.978920
 20
-152.884067
 30
0.0
 10
-5765.098480
 20
-152.884067
 30
0.0
  0
LWPOLYLINE
  5
133
100
AcDbEntity
  8
0
 62
7
100
AcDbPolyline
 90
1
 70
1
 10
-5156.243382
 20
-1005.402865
 30
0.0
  0
SPLINE
  5
134
100
AcDbEntity
  8
0
 62
7
100
AcDbSpline
 70
8
 71
3
 72
8
 73
4
 74
0
 40
0
 40
0
 40
0
 40
0
 40
1
 40
1
 40
1
 40
1
 10
-5460.670718
 20
1065.434255
 30
0.0
 10
-5565.039300
 20
1065.434255
 30
0.0
 10
-5649.646752
 20
980.826802
 30
0.0
 10
-5649.646752
 20
876.458221
 30
0.0
  0
SPLINE
  5
135
100
AcDbEntity
  8
0
 62
7
100
AcDbSpline
 70
8
 71
3
 72
8
 73
4
 74
0
 40
0
 40
0
 40
0
 40
0
 40
1
 40
1
 40
1
 40
1
 10
-5649.646752
 20
876.458221
 30
0.0
 10
-5649.646752
 20
772.089639
 30
0.0
 10
-5565.039300
 20
687.482187
 30
0.0
 10
-5460.670718
 20
687.482187
 30
0.0
  0
SPLINE
  5
136
100
AcDbEntity
  8
0
 62
7
100
AcDbSpline
 70
8
 71
3
 72
8
 73
4
 74
0
 40
0
 40
0
 40
0
 40
0
 40
1
 40
1
 40
1
 40
1
 10
-5460.670718
 20
687.482187
 30
0.0
 10
-5356.302137
 20
687.482187
 30
0.0
 10
-5271.694685
 20
772.089639
 30
0.0
 10
-5271.694685
 20
876.458221
 30
0.0
  0
SPLINE
  5
137
100
AcDbEntity
  8
0
 62
7
100
AcDbSpline
 70
8
 71
3
 72
8
 73
4
 74
0
 40
0
 40
0
 40
0
 40
0
 40
1
 40
1
 40
1
 40
1
 10
-5271.694685
 20
876.458221
 30
0.0
 10
-5271.694685
 20
926.577781
 30
0.0
 10
-5291.604602
 20
974.644575
 30
0.0
 10
-5327.044483
 20
1010.084456
 30
0.0
  0
SPLINE
  5
138
100
AcDbEntity
  8
0
 62
7
100
AcDbSpline
 70
8
 71
3
 72
8
 73
4
 74
0
 40
0
 40
0
 40
0
 40
0
 40
1
 40
1
 40
1
 40
1
 10
-5327.044483
 20
1010.084456
 30
0.0
 10
-5362.484364
 20
1045.524337
 30
0.0
 10
-5410.551158
 20
1065.434255
 30
0.0
 10
-5460.670718
 20
1065.434255
 30
0.0
  0
LWPOLYLINE
  5
139
100
AcDbEntity
  8
0
 62
7
100
AcDbPolyline
 90
1
 70
1
 10
-5765.098480
 20
-152.884067
 30
0.0
  0
SPLINE
  5
13a
100
AcDbEntity
  8
0
 62
7
100
AcDbSpline
 70
8
 71
3
 72
8
 73
4
 74
0
 40
0
 40
0
 40
0
 40
0
 40
1
 40
1
 40
1
 40
1
 10
-3659.018483
 20
-1538.303449
 30
0.0
 10
-3735.452154
 20
-1538.303449
 30
0.0
 10
-3804.359673
 20
-1584.345982
 30
0.0
 10
-3833.609573
 20
-1654.961486
 30
0.0
  0
SPLINE
  5
13b
100
AcDbEntity
  8
0
 62
7
100
AcDbSpline
 70
8
 71
3
 72
8
 73
4
 74
0
 40
0
 40
0
 40
0
 40
0
 40
1
 40
1
 40
1
 40
1
 10
-3833.609573
 20
-1654.961486
 30
0.0
 10
-3862.859472
 20
-1725.576990
 30
0.0
 10
-3846.691485
 20
-1806.858951
 30
0.0
 10
-3792.644718
 20
-1860.905718
 30
0.0
  0
SPLINE
  5
13c
100
AcDbEntity
  8
0
 62
7
100
AcDbSpline
 70
8
 71
3
 72
8
 73
4
 74
0
 40
0
 40
0
 40
0
 40
0
 40
1
 40
1
 40
1
 40
1
 10
-3792.644718
 20
-1860.905718
 30
0.0
 10
-3738.597951
 20
-1914.952485
 30
0.0
 10
-3657.315990
 20
-1931.120472
 30
0.0
 10
-3586.700486
 20
-1901.870573
 30
0.0
  0
SPLINE
  5
13d
100
AcDbEntity
  8
0
 62
7
100
AcDbSpline
 70
8
 71
3
 72
8
 73
4
 74
0
 40
0
 40
0
 40
0
 40
0
 40
1
 40
1
 40
1
 40
1
 10
-3586.700486
 20
-1901.870573
 30
0.0
 10
-3516.084982
 20
-1872.620673
 30
0.0
 10
-3470.042449
 20
-1803.713154
 30
0.0
 10
-3470.042449
 20
-1727.279483
 30
0.0
  0
SPLINE
  5
13e
100
AcDbEntity
  8
0
 62
7
100
AcDbSpline
 70
8
 71
3
 72
8
 73
4
 74
0
 40
0
 40
0
 40
0
 40
0
 40
1
 40
1
 40
1
 40
1
 10
-3470.042449
 20
-1727.279483
 30
0.0
 10
-3470.042449
 20
-1677.159923
 30
0.0
 10
-3489.952367
 20
-1629.093129
 30
0.0
 10
-3525.392248
 20
-1593.653248
 30
0.0
  0
SPLINE
  5
13f
100
AcDbEntity
  8
0
 62
7
100
AcDbSpline
 70
8
 71
3
 72
8
 73
4
 74
0
 40
0
 40
0
 40
0
 40
0
 40
1
 40
1
 40
1
 40
1
 10
-3525.392248
 20
-1593.653248
 30
0.0
 10
-3560.832129
 20
-1558.213367
 30
0.0
 10
-3608.898923
 20
-1538.303449
 30
0.0
 10
-3659.018483
 20
-1538.303449
 30
0.0
  0
LWPOLYLINE
  5
140
100
AcDbEntity
  8
0
 62
7
100
AcDbPolyline
 90
1
 70
1
 10
-5460.670718
 20
1065.434255
 30
0.0
  0
SPLINE
  5
141
100
AcDbEntity
  8
0
 62
7
100
AcDbSpline
 70
8
 71
3
 72
8
 73
4
 74
0
 40
0
 40
0
 40
0
 40
0
 40
1
 40
1
 40
1
 40
1
 10
-3982.282902
 20
-151.061208
 30
0.0
 10
-4058.716573
 20
-151.061208
 30
0.0
 10
-4127.624093
 20
-197.103740
 30
0.0
 10
-4156.873992
 20
-267.719244
 30
0.0
  0
SPLINE
  5
142
100
AcDbEntity
  8
0
 62
7
100
AcDbSpline
 70
8
 71
3
 72
8
 73
4
 74
0
 40
0
 40
0
 40
0
 40
0
 40
1
 40
1
 40
1
 40
1
 10
-4156.873992
 20
-267.719244
 30
0.0
 10
-4186.123892
 20
-338.334748
 30
0.0
 10
-4169.955904
 20
-419.616710
 30
0.0
 10
-4115.909137
 20
-473.663477
 30
0.0
  0
SPLINE
  5
143
100
AcDbEntity
  8
0
 62
7
100
AcDbSpline
 70
8
 71
3
 72
8
 73
4
 74
0
 40
0
 40
0
 40
0
 40
0
 40
1
 40
1
 40
1
 40
1
 10
-4115.909137
 20
-473.663477
 30
0.0
 10
-4061.862370
 20
-527.710244
 30
0.0
 10
-3980.580409
 20
-543.878231
 30
0.0
 10
-3909.964905
 20
-514.628331
 30
0.0
  0
SPLINE
  5
144
100
AcDbEntity
  8
0
 62
7
100
AcDbSpline
 70
8
 71
3
 72
8
 73
4
 74
0
 40
0
 40
0
 40
0
 40
0
 40
1
 40
1
 40
1
 40
1
 10
-3909.964905
 20
-514.628331
 30
0.0
 10
-3839.349401
 20
-485.378432
 30
0.0
 10
-3793.306868
 20
-416.470912
 30
0.0
 10
-3793.306868
 20
-340.037242
 30
0.0
  0
SPLINE
  5
145
100
AcDbEntity
  8
0
 62
7
100
AcDbSpline
 70
8
 71
3
 72
8
 73
4
 74
0
 40
0
 40
0
 40
0
 40
0
 40
1
 40
1
 40
1
 40
1
 10
-3793.306868
 20
-340.037242
 30
0.0
 10
-3793.306868
 20
-289.917681
 30
0.0
 10
-3813.216786
 20
-241.850887
 30
0.0
 10
-3848.656667
 20
-206.411006
 30
0.0
  0
SPLINE
  5
146
100
AcDbEntity
  8
0
 62
7
100
AcDbSpline
 70
8
 71
3
 72
8
 73
4
 74
0
 40
0
 40
0
 40
0
 40
0
 40
1
 40
1
 40
1
 40
1
 10
-3848.656667
 20
-206.411006
 30
0.0
 10
-3884.096548
 20
-170.971125
 30
0.0
 10
-3932.163342
 20
-151.061208
 30
0.0
 10
-3982.282902
 20
-151.061208
 30
0.0
  0
LWPOLYLINE
  5
147
100
AcDbEntity
  8
0
 62
7
100
AcDbPolyline
 90
1
 70
1
 10
-3659.018483
 20
-1538.303449
 30
0.0
  0
SPLINE
  5
148
100
AcDbEntity
  8
0
 62
7
100
AcDbSpline
 70
8
 71
3
 72
8
 73
4
 74
0
 40
0
 40
0
 40
0
 40
0
 40
1
 40
1
 40
1
 40
1
 10
-4430.721101
 20
1101.892655
 30
0.0
 10
-4535.089682
 20
1101.892655
 30
0.0
 10
-4619.697135
 20
1017.285202
 30
0.0
 10
-4619.697135
 20
912.916621
 30
0.0
  0
SPLINE
  5
149
100
AcDbEntity
  8
0
 62
7
100
AcDbSpline
 70
8
 71
3
 72
8
 73
4
 74
0
 40
0
 40
0
 40
0
 40
0
 40
1
 40
1
 40
1
 40
1
 10
-4619.697135
 20
912.916621
 30
0.0
 10
-4619.697135
 20
808.548039
 30
0.0
 10
-4535.089682
 20
723.940587
 30
0.0
 10
-4430.721101
 20
723.940587
 30
0.0
  0
SPLINE
  5
14a
100
AcDbEntity
  8
0
 62
7
100
AcDbSpline
 70
8
 71
3
 72
8
 73
4
 74
0
 40
0
 40
0
 40
0
 40
0
 40
1
 40
1
 40
1
 40
1
 10
-4430.721101
 20
723.940587
 30
0.0
 10
-4326.352519
 20
723.940587
 30
0.0
 10
-4241.745067
 20
808.548039
 30
0.0
 10
-4241.745067
 20
912.916621
 30
0.0
  0
SPLINE
  5
14b
100
AcDbEntity
  8
0
 62
7
100
AcDbSpline
 70
8
 71
3
 72
8
 73
4
 74
0
 40
0
 40
0
 40
0
 40
0
 40
1
 40
1
 40
1
 40
1
 10
-4241.745067
 20
912.916621
 30
0.0
 10
-4241.745067
 20
963.036181
 30
0.0
 10
-4261.654985
 20
1011.102975
 30
0.0
 10
-4297.094866
 20
1046.542856
 30
0.0
  0
SPLINE
  5
14c
100
AcDbEntity
  8
0
 62
7
100
AcDbSpline
 70
8
 71
3
 72
8
 73
4
 74
0
 40
0
 40
0
 40
0
 40
0
 40
1
 40
1
 40
1
 40
1
 10
-4297.094866
 20
1046.542856
 30
0.0
 10
-4332.534747
 20
1081.982737
 30
0.0
 10
-4380.601540
 20
1101.892655
 30
0.0
 10
-4430.721101
 20
1101.892655
 30
0.0
  0
LWPOLYLINE
  5
14d
100
AcDbEntity
  8
0
 62
7
100
AcDbPolyline
 90
1
 70
1
 10
-3982.282902
 20
-151.061208
 30
0.0
  0
SPLINE
  5
14e
100
AcDbEntity
  8
0
 62
7
100
AcDbSpline
 70
8
 71
3
 72
8
 73
4
 74
0
 40
0
 40
0
 40
0
 40
0
 40
1
 40
1
 40
1
 40
1
 10
-4851.815621
 20
2101.460394
 30
0.0
 10
-4928.249292
 20
2101.460394
 30
0.0
 10
-4997.156811
 20
2055.417861
 30
0.0
 10
-5026.406711
 20
1984.802357
 30
0.0
  0
SPLINE
  5
14f
100
AcDbEntity
  8
0
 62
7
100
AcDbSpline
 70
8
 71
3
 72
8
 73
4
 74
0
 40
0
 40
0
 40
0
 40
0
 40
1
 40
1
 40
1
 40
1
 10
-5026.406711
 20
1984.802357
 30
0.0
 10
-5055.656610
 20
1914.186853
 30
0.0
 10
-5039.488623
 20
1832.904892
 30
0.0
 10
-4985.441856
 20
1778.858125
 30
0.0
  0
SPLINE
  5
150
100
AcDbEntity
  8
0
 62
7
100
AcDbSpline
 70
8
 71
3
 72
8
 73
4
 74
0
 40
0
 40
0
 40
0
 40
0
 40
1
 40
1
 40
1
 40
1
 10
-4985.441856
 20
1778.858125
 30
0.0
 10
-4931.395089
 20
1724.811358
 30
0.0
 10
-4850.113128
 20
1708.643371
 30
0.0
 10
-4779.497623
 20
1737.893270
 30
0.0
  0
SPLINE
  5
151
100
AcDbEntity
  8
0
 62
7
100
AcDbSpline
 70
8
 71
3
 72
8
 73
4
 74
0
 40
0
 40
0
 40
0
 40
0
 40
1
 40
1
 40
1
 40
1
 10
-4779.497623
 20
1737.893270
 30
0.0
 10
-4708.882119
 20
1767.143170
 30
0.0
 10
-4662.839587
 20
1836.050689
 30
0.0
 10
-4662.839587
 20
1912.484360
 30
0.0
  0
SPLINE
  5
152
100
AcDbEntity
  8
0
 62
7
100
AcDbSpline
 70
8
 71
3
 72
8
 73
4
 74
0
 40
0
 40
0
 40
0
 40
0
 40
1
 40
1
 40
1
 40
1
 10
-4662.839587
 20
1912.484360
 30
0.0
 10
-4662.839587
 20
2016.852942
 30
0.0
 10
-4747.447039
 20
2101.460394
 30
0.0
 10
-4851.815621
 20
2101.460394
 30
0.0
  0
LWPOLYLINE
  5
153
100
AcDbEntity
  8
0
 62
7
100
AcDbPolyline
 90
1
 70
1
 10
-4430.721101
 20
1101.892655
 30
0.0
  0
LWPOLYLINE
  5
154
100
AcDbEntity
  8
0
 62
7
100
AcDbPolyline
 90
1
 70
1
 10
-4851.815621
 20
2101.460394
 30
0.0
  0
SPLINE
  5
155
100
AcDbEntity
  8
0
 62
7
100
AcDbSpline
 70
8
 71
3
 72
8
 73
4
 74
0
 40
0
 40
0
 40
0
 40
0
 40
1
 40
1
 40
1
 40
1
 10
-1712.139680
 20
-1603.928205
 30
0.0
 10
-1788.573351
 20
-1603.928205
 30
0.0
 10
-1857.480870
 20
-1649.970737
 30
0.0
 10
-1886.730770
 20
-1720.586241
 30
0.0
  0
SPLINE
  5
156
100
AcDbEntity
  8
0
 62
7
100
AcDbSpline
 70
8
 71
3
 72
8
 73
4
 74
0
 40
0
 40
0
 40
0
 40
0
 40
1
 40
1
 40
1
 40
1
 10
-1886.730770
 20
-1720.586241
 30
0.0
 10
-1915.980669
 20
-1791.201745
 30
0.0
 10
-1899.812682
 20
-1872.483707
 30
0.0
 10
-1845.765915
 20
-1926.530474
 30
0.0
  0
SPLINE
  5
157
100
AcDbEntity
  8
0
 62
7
100
AcDbSpline
 70
8
 71
3
 72
8
 73
4
 74
0
 40
0
 40
0
 40
0
 40
0
 40
1
 40
1
 40
1
 40
1
 10
-1845.765915
 20
-1926.530474
 30
0.0
 10
-1791.719148
 20
-1980.577241
 30
0.0
 10
-1710.437187
 20
-1996.745228
 30
0.0
 10
-1639.821683
 20
-1967.495328
 30
0.0
  0
SPLINE
  5
158
100
AcDbEntity
  8
0
 62
7
100
AcDbSpline
 70
8
 71
3
 72
8
 73
4
 74
0
 40
0
 40
0
 40
0
 40
0
 40
1
 40
1
 40
1
 40
1
 10
-1639.821683
 20
-1967.495328
 30
0.0
 10
-1569.206179
 20
-1938.245429
 30
0.0
 10
-1523.163646
 20
-1869.337909
 30
0.0
 10
-1523.163646
 20
-1792.904238
 30
0.0
  0
SPLINE
  5
159
100
AcDbEntity
  8
0
 62
7
100
AcDbSpline
 70
8
 71
3
 72
8
 73
4
 74
0
 40
0
 40
0
 40
0
 40
0
 40
1
 40
1
 40
1
 40
1
 10
-1523.163646
 20
-1792.904238
 30
0.0
 10
-1523.163646
 20
-1742.784678
 30
0.0
 10
-1543.073564
 20
-1694.717884
 30
0.0
 10
-1578.513445
 20
-1659.278003
 30
0.0
  0
SPLINE
  5
15a
100
AcDbEntity
  8
0
 62
7
100
AcDbSpline
 70
8
 71
3
 72
8
 73
4
 74
0
 40
0
 40
0
 40
0
 40
0
 40
1
 40
1
 40
1
 40
1
 10
-1578.513445
 20
-1659.278003
 30
0.0
 10
-1613.953326
 20
-1623.838122
 30
0.0
 10
-1662.020120
 20
-1603.928205
 30
0.0
 10
-1712.139680
 20
-1603.928205
 30
0.0
  0
LWPOLYLINE
  5
15b
100
AcDbEntity
  8
0
 62
7
100
AcDbPolyline
 90
4
 70
1
 10
-1021.253000
 20
-2349.502600
 30
0.0
 10
-2339.831800
 20
-2349.502600
 30
0.0
 10
-2339.831800
 20
1592.865720
 30
0.0
 10
-1021.253000
 20
2642.260000
 30
0.0
  0
SPLINE
  5
15c
100
AcDbEntity
  8
0
 62
7
100
AcDbSpline
 70
8
 71
3
 72
8
 73
4
 74
0
 40
0
 40
0
 40
0
 40
0
 40
1
 40
1
 40
1
 40
1
 10
-1727.330680
 20
547.117274
 30
0.0
 10
-1803.764351
 20
547.117274
 30
0.0
 10
-1872.671870
 20
501.074741
 30
0.0
 10
-1901.921770
 20
430.459237
 30
0.0
  0
SPLINE
  5
15d
100
AcDbEntity
  8
0
 62
7
100
AcDbSpline
 70
8
 71
3
 72
8
 73
4
 74
0
 40
0
 40
0
 40
0
 40
0
 40
1
 40
1
 40
1
 40
1
 10
-1901.921770
 20
430.459237
 30
0.0
 10
-1931.171669
 20
359.843733
 30
0.0
 10
-1915.003682
 20
278.561772
 30
0.0
 10
-1860.956915
 20
224.515005
 30
0.0
  0
SPLINE
  5
15e
100
AcDbEntity
  8
0
 62
7
100
AcDbSpline
 70
8
 71
3
 72
8
 73
4
 74
0
 40
0
 40
0
 40
0
 40
0
 40
1
 40
1
 40
1
 40
1
 10
-1860.956915
 20
224.515005
 30
0.0
 10
-1806.910148
 20
170.468238
 30
0.0
 10
-1725.628187
 20
154.300251
 30
0.0
 10
-1655.012683
 20
183.550150
 30
0.0
  0
SPLINE
  5
15f
100
AcDbEntity
  8
0
 62
7
100
AcDbSpline
 70
8
 71
3
 72
8
 73
4
 74
0
 40
0
 40
0
 40
0
 40
0
 40
1
 40
1
 40
1
 40
1
 10
-1655.012683
 20
183.550150
 30
0.0
 10
-1584.397179
 20
212.800050
 30
0.0
 10
-1538.354646
 20
281.707569
 30
0.0
 10
-1538.354646
 20
358.141240
 30
0.0
  0
SPLINE
  5
160
100
AcDbEntity
  8
0
 62
7
100
AcDbSpline
 70
8
 71
3
 72
8
 73
4
 74
0
 40
0
 40
0
 40
0
 40
0
 40
1
 40
1
 40
1
 40
1
 10
-1538.354646
 20
358.141240
 30
0.0
 10
-1538.354646
 20
408.260800
 30
0.0
 10
-1558.264564
 20
456.327594
 30
0.0
 10
-1593.704445
 20
491.767475
 30
0.0
  0
SPLINE
  5
161
100
AcDbEntity
  8
0
 62
7
100
AcDbSpline
 70
8
 71
3
 72
8
 73
4
 74
0
 40
0
 40
0
 40
0
 40
0
 40
1
 40
1
 40
1
 40
1
 10
-1593.704445
 20
491.767475
 30
0.0
 10
-1629.144326
 20
527.207356
 30
0.0
 10
-1677.211120
 20
547.117274
 30
0.0
 10
-1727.330680
 20
547.117274
 30
0.0
  0
LWPOLYLINE
  5
162
100
AcDbEntity
  8
0
 62
7
100
AcDbPolyline
 90
1
 70
1
 10
-1712.139680
 20
-1603.928205
 30
0.0
  0
SPLINE
  5
163
100
AcDbEntity
  8
0
 62
7
100
AcDbSpline
 70
8
 71
3
 72
8
 73
4
 74
0
 40
0
 40
0
 40
0
 40
0
 40
1
 40
1
 40
1
 40
1
 10
-1727.330680
 20
1620.209514
 30
0.0
 10
-1803.764351
 20
1620.209514
 30
0.0
 10
-1872.671870
 20
1574.166981
 30
0.0
 10
-1901.921770
 20
1503.551477
 30
0.0
  0
SPLINE
  5
164
100
AcDbEntity
  8
0
 62
7
100
AcDbSpline
 70
8
 71
3
 72
8
 73
4
 74
0
 40
0
 40
0
 40
0
 40
0
 40
1
 40
1
 40
1
 40
1
 10
-1901.921770
 20
1503.551477
 30
0.0
 10
-1931.171669
 20
1432.935973
 30
0.0
 10
-1915.003682
 20
1351.654012
 30
0.0
 10
-1860.956915
 20
1297.607245
 30
0.0
  0
SPLINE
  5
165
100
AcDbEntity
  8
0
 62
7
100
AcDbSpline
 70
8
 71
3
 72
8
 73
4
 74
0
 40
0
 40
0
 40
0
 40
0
 40
1
 40
1
 40
1
 40
1
 10
-1860.956915
 20
1297.607245
 30
0.0
 10
-1806.910148
 20
1243.560478
 30
0.0
 10
-1725.628187
 20
1227.392491
 30
0.0
 10
-1655.012683
 20
1256.642390
 30
0.0
  0
SPLINE
  5
166
100
AcDbEntity
  8
0
 62
7
100
AcDbSpline
 70
8
 71
3
 72
8
 73
4
 74
0
 40
0
 40
0
 40
0
 40
0
 40
1
 40
1
 40
1
 40
1
 10
-1655.012683
 20
1256.642390
 30
0.0
 10
-1584.397179
 20
1285.892290
 30
0.0
 10
-1538.354646
 20
1354.799809
 30
0.0
 10
-1538.354646
 20
1431.233480
 30
0.0
  0
SPLINE
  5
167
100
AcDbEntity
  8
0
 62
7
100
AcDbSpline
 70
8
 71
3
 72
8
 73
4
 74
0
 40
0
 40
0
 40
0
 40
0
 40
1
 40
1
 40
1
 40
1
 10
-1538.354646
 20
1431.233480
 30
0.0
 10
-1538.354646
 20
1481.353040
 30
0.0
 10
-1558.264564
 20
1529.419834
 30
0.0
 10
-1593.704445
 20
1564.859715
 30
0.0
  0
SPLINE
  5
168
100
AcDbEntity
  8
0
 62
7
100
AcDbSpline
 70
8
 71
3
 72
8
 73
4
 74
0
 40
0
 40
0
 40
0
 40
0
 40
1
 40
1
 40
1
 40
1
 10
-1593.704445
 20
1564.859715
 30
0.0
 10
-1629.144326
 20
1600.299596
 30
0.0
 10
-1677.211120
 20
1620.209514
 30
0.0
 10
-1727.330680
 20
1620.209514
 30
0.0
  0
LWPOLYLINE
  5
169
100
AcDbEntity
  8
0
 62
7
100
AcDbPolyline
 90
1
 70
1
 10
-1727.330680
 20
547.117274
 30
0.0
  0
SPLINE
  5
16a
100
AcDbEntity
  8
0
 62
7
100
AcDbSpline
 70
8
 71
3
 72
8
 73
4
 74
0
 40
0
 40
0
 40
0
 40
0
 40
1
 40
1
 40
1
 40
1
 10
-1712.139680
 20
-589.169587
 30
0.0
 10
-1788.573351
 20
-589.169587
 30
0.0
 10
-1857.480870
 20
-635.212119
 30
0.0
 10
-1886.730770
 20
-705.827623
 30
0.0
  0
SPLINE
  5
16b
100
AcDbEntity
  8
0
 62
7
100
AcDbSpline
 70
8
 71
3
 72
8
 73
4
 74
0
 40
0
 40
0
 40
0
 40
0
 40
1
 40
1
 40
1
 40
1
 10
-1886.730770
 20
-705.827623
 30
0.0
 10
-1915.980669
 20
-776.443128
 30
0.0
 10
-1899.812682
 20
-857.725089
 30
0.0
 10
-1845.765915
 20
-911.771856
 30
0.0
  0
SPLINE
  5
16c
100
AcDbEntity
  8
0
 62
7
100
AcDbSpline
 70
8
 71
3
 72
8
 73
4
 74
0
 40
0
 40
0
 40
0
 40
0
 40
1
 40
1
 40
1
 40
1
 10
-1845.765915
 20
-911.771856
 30
0.0
 10
-1791.719148
 20
-965.818623
 30
0.0
 10
-1710.437187
 20
-981.986610
 30
0.0
 10
-1639.821683
 20
-952.736711
 30
0.0
  0
SPLINE
  5
16d
100
AcDbEntity
  8
0
 62
7
100
AcDbSpline
 70
8
 71
3
 72
8
 73
4
 74
0
 40
0
 40
0
 40
0
 40
0
 40
1
 40
1
 40
1
 40
1
 10
-1639.821683
 20
-952.736711
 30
0.0
 10
-1569.206179
 20
-923.486811
 30
0.0
 10
-1523.163646
 20
-854.579292
 30
0.0
 10
-1523.163646
 20
-778.145621
 30
0.0
  0
SPLINE
  5
16e
100
AcDbEntity
  8
0
 62
7
100
AcDbSpline
 70
8
 71
3
 72
8
 73
4
 74
0
 40
0
 40
0
 40
0
 40
0
 40
1
 40
1
 40
1
 40
1
 10
-1523.163646
 20
-778.145621
 30
0.0
 10
-1523.163646
 20
-728.026060
 30
0.0
 10
-1543.073564
 20
-679.959267
 30
0.0
 10
-1578.513445
 20
-644.519386
 30
0.0
  0
SPLINE
  5
16f
100
AcDbEntity
  8
0
 62
7
100
AcDbSpline
 70
8
 71
3
 72
8
 73
4
 74
0
 40
0
 40
0
 40
0
 40
0
 40
1
 40
1
 40
1
 40
1
 10
-1578.513445
 20
-644.519386
 30
0.0
 10
-1613.953326
 20
-609.079505
 30
0.0
 10
-1662.020120
 20
-589.169587
 30
0.0
 10
-1712.139680
 20
-589.169587
 30
0.0
  0
LWPOLYLINE
  5
170
100
AcDbEntity
  8
0
 62
7
100
AcDbPolyline
 90
1
 70
1
 10
-1727.330680
 20
1620.209514
 30
0.0
  0
SPLINE
  5
171
100
AcDbEntity
  8
0
 62
7
100
AcDbSpline
 70
8
 71
3
 72
8
 73
4
 74
0
 40
0
 40
0
 40
0
 40
0
 40
1
 40
1
 40
1
 40
1
 10
2123.284000
 20
1777.588280
 30
0.0
 10
1817.641080
 20
2294.689920
 30
0.0
 10
1436.650800
 20
2553.544560
 30
0.0
 10
980.920800
 20
2553.544560
 30
0.0
  0
SPLINE
  5
172
100
AcDbEntity
  8
0
 62
7
100
AcDbSpline
 70
8
 71
3
 72
8
 73
4
 74
0
 40
0
 40
0
 40
0
 40
0
 40
1
 40
1
 40
1
 40
1
 10
980.920800
 20
2553.544560
 30
0.0
 10
525.190800
 20
2553.544560
 30
0.0
 10
139.947040
 20
2297.120480
 30
0.0
 10
-165.695880
 20
1784.272320
 30
0.0
  0
SPLINE
  5
173
100
AcDbEntity
  8
0
 62
7
100
AcDbSpline
 70
8
 71
3
 72
8
 73
4
 74
0
 40
0
 40
0
 40
0
 40
0
 40
1
 40
1
 40
1
 40
1
 10
-165.695880
 20
1784.272320
 30
0.0
 10
-450.679040
 20
1305.452000
 30
0.0
 10
-593.474440
 20
722.117600
 30
0.0
 10
-593.474440
 20
35.484400
 30
0.0
  0
SPLINE
  5
174
100
AcDbEntity
  8
0
 62
7
100
AcDbSpline
 70
8
 71
3
 72
8
 73
4
 74
0
 40
0
 40
0
 40
0
 40
0
 40
1
 40
1
 40
1
 40
1
 10
-593.474440
 20
35.484400
 30
0.0
 10
-593.474440
 20
-651.148800
 30
0.0
 10
-450.679040
 20
-1234.483200
 30
0.0
 10
-165.695880
 20
-1713.303520
 30
0.0
  0
SPLINE
  5
175
100
AcDbEntity
  8
0
 62
7
100
AcDbSpline
 70
8
 71
3
 72
8
 73
4
 74
0
 40
0
 40
0
 40
0
 40
0
 40
1
 40
1
 40
1
 40
1
 10
-165.695880
 20
-1713.303520
 30
0.0
 10
139.947040
 20
-2230.405160
 30
0.0
 10
522.152600
 20
-2489.259800
 30
0.0
 10
980.920800
 20
-2489.259800
 30
0.0
  0
SPLINE
  5
176
100
AcDbEntity
  8
0
 62
7
100
AcDbSpline
 70
8
 71
3
 72
8
 73
4
 74
0
 40
0
 40
0
 40
0
 40
0
 40
1
 40
1
 40
1
 40
1
 10
980.920800
 20
-2489.259800
 30
0.0
 10
1439.689000
 20
-2489.259800
 30
0.0
 10
1814.602880
 20
-2230.405160
 30
0.0
 10
2123.284000
 20
-1713.303520
 30
0.0
  0
SPLINE
  5
177
100
AcDbEntity
  8
0
 62
7
100
AcDbSpline
 70
8
 71
3
 72
8
 73
4
 74
0
 40
0
 40
0
 40
0
 40
0
 40
1
 40
1
 40
1
 40
1
 10
2123.284000
 20
-1713.303520
 30
0.0
 10
2411.305360
 20
-1230.229720
 30
0.0
 10
2555.316040
 20
-646.895320
 30
0.0
 10
2555.316040
 20
35.484400
 30
0.0
  0
SPLINE
  5
178
100
AcDbEntity
  8
0
 62
7
100
AcDbSpline
 70
8
 71
3
 72
8
 73
4
 74
0
 40
0
 40
0
 40
0
 40
0
 40
1
 40
1
 40
1
 40
1
 10
2555.316040
 20
35.484400
 30
0.0
 10
2555.316040
 20
717.864120
 30
0.0
 10
2411.305360
 20
1294.514480
 30
0.0
 10
2123.284000
 20
1777.588280
 30
0.0
  0
LWPOLYLINE
  5
179
100
AcDbEntity
  8
0
 62
7
100
AcDbPolyline
 90
1
 70
1
 10
-1712.139680
 20
-589.169587
 30
0.0
  0
SPLINE
  5
17a
100
AcDbEntity
  8
0
 62
7
100
AcDbSpline
 70
8
 71
3
 72
8
 73
4
 74
0
 40
0
 40
0
 40
0
 40
0
 40
1
 40
1
 40
1
 40
1
 10
1668.769280
 20
-1096.548920
 30
0.0
 10
1489.515480
 20
-1427.105080
 30
0.0
 10
1249.497680
 20
-1607.574160
 30
0.0
 10
949.931160
 20
-1637.348520
 30
0.0
  0
LWPOLYLINE
  5
17b
100
AcDbEntity
  8
0
 62
7
100
AcDbPolyline
 90
1
 70
1
 10
2123.284000
 20
1777.588280
 30
0.0
  0
SPLINE
  5
17c
100
AcDbEntity
  8
0
 62
7
100
AcDbSpline
 70
8
 71
3
 72
8
 73
4
 74
0
 40
0
 40
0
 40
0
 40
0
 40
1
 40
1
 40
1
 40
1
 10
949.931160
 20
1701.025640
 30
0.0
 10
1250.105320
 20
1671.251280
 30
0.0
 10
1489.515480
 20
1493.212760
 30
0.0
 10
1668.769280
 20
1166.910080
 30
0.0
  0
SPLINE
  5
17d
100
AcDbEntity
  8
0
 62
7
100
AcDbSpline
 70
8
 71
3
 72
8
 73
4
 74
0
 40
0
 40
0
 40
0
 40
0
 40
1
 40
1
 40
1
 40
1
 10
1668.769280
 20
1166.910080
 30
0.0
 10
1848.023080
 20
840.607400
 30
0.0
 10
1937.953800
 20
463.262960
 30
0.0
 10
1937.953800
 20
34.876760
 30
0.0
  0
SPLINE
  5
17e
100
AcDbEntity
  8
0
 62
7
100
AcDbSpline
 70
8
 71
3
 72
8
 73
4
 74
0
 40
0
 40
0
 40
0
 40
0
 40
1
 40
1
 40
1
 40
1
 10
1937.953800
 20
34.876760
 30
0.0
 10
1937.953800
 20
-393.509440
 30
0.0
 10
1848.023080
 20
-766.600400
 30
0.0
 10
1668.769280
 20
-1097.156560
 30
0.0
  0
LWPOLYLINE
  5
17f
100
AcDbEntity
  8
0
 62
7
100
AcDbPolyline
 90
2
 70
0
 10
949.931160
 20
-1637.348520
 30
0.0
 10
949.931160
 20
1701.025640
 30
0.0
  0
SPLINE
  5
180
100
AcDbEntity
  8
0
 62
7
100
AcDbSpline
 70
8
 71
3
 72
8
 73
4
 74
0
 40
0
 40
0
 40
0
 40
0
 40
1
 40
1
 40
1
 40
1
 10
2243.596720
 20
167.342274
 30
0.0
 10
2167.163049
 20
167.342274
 30
0.0
 10
2098.255530
 20
121.299741
 30
0.0
 10
2069.005630
 20
50.684237
 30
0.0
  0
SPLINE
  5
181
100
AcDbEntity
  8
0
 62
7
100
AcDbSpline
 70
8
 71
3
 72
8
 73
4
 74
0
 40
0
 40
0
 40
0
 40
0
 40
1
 40
1
 40
1
 40
1
 10
2069.005630
 20
50.684237
 30
0.0
 10
2039.755731
 20
-19.931267
 30
0.0
 10
2055.923718
 20
-101.213228
 30
0.0
 10
2109.970485
 20
-155.259995
 30
0.0
  0
SPLINE
  5
182
100
AcDbEntity
  8
0
 62
7
100
AcDbSpline
 70
8
 71
3
 72
8
 73
4
 74
0
 40
0
 40
0
 40
0
 40
0
 40
1
 40
1
 40
1
 40
1
 10
2109.970485
 20
-155.259995
 30
0.0
 10
2164.017252
 20
-209.306762
 30
0.0
 10
2245.299213
 20
-225.474749
 30
0.0
 10
2315.914717
 20
-196.224850
 30
0.0
  0
SPLINE
  5
183
100
AcDbEntity
  8
0
 62
7
100
AcDbSpline
 70
8
 71
3
 72
8
 73
4
 74
0
 40
0
 40
0
 40
0
 40
0
 40
1
 40
1
 40
1
 40
1
 10
2315.914717
 20
-196.224850
 30
0.0
 10
2386.530221
 20
-166.974950
 30
0.0
 10
2432.572754
 20
-98.067431
 30
0.0
 10
2432.572754
 20
-21.633760
 30
0.0
  0
SPLINE
  5
184
100
AcDbEntity
  8
0
 62
7
100
AcDbSpline
 70
8
 71
3
 72
8
 73
4
 74
0
 40
0
 40
0
 40
0
 40
0
 40
1
 40
1
 40
1
 40
1
 10
2432.572754
 20
-21.633760
 30
0.0
 10
2432.572754
 20
28.485800
 30
0.0
 10
2412.662836
 20
76.552594
 30
0.0
 10
2377.222955
 20
111.992475
 30
0.0
  0
SPLINE
  5
185
100
AcDbEntity
  8
0
 62
7
100
AcDbSpline
 70
8
 71
3
 72
8
 73
4
 74
0
 40
0
 40
0
 40
0
 40
0
 40
1
 40
1
 40
1
 40
1
 10
2377.222955
 20
111.992475
 30
0.0
 10
2341.783074
 20
147.432356
 30
0.0
 10
2293.716280
 20
167.342274
 30
0.0
 10
2243.596720
 20
167.342274
 30
0.0
  0
LWPOLYLINE
  5
186
100
AcDbEntity
  8
0
 62
7
100
AcDbPolyline
 90
2
 70
0
 10
1668.769280
 20
-1097.156560
 30
0.0
 10
1668.769280
 20
-1096.548920
 30
0.0
  0
SPLINE
  5
187
100
AcDbEntity
  8
0
 62
7
100
AcDbSpline
 70
8
 71
3
 72
8
 73
4
 74
0
 40
0
 40
0
 40
0
 40
0
 40
1
 40
1
 40
1
 40
1
 10
1872.936320
 20
-1045.507105
 30
0.0
 10
1796.502649
 20
-1045.507105
 30
0.0
 10
1727.595130
 20
-1091.549638
 30
0.0
 10
1698.345230
 20
-1162.165142
 30
0.0
  0
SPLINE
  5
188
100
AcDbEntity
  8
0
 62
7
100
AcDbSpline
 70
8
 71
3
 72
8
 73
4
 74
0
 40
0
 40
0
 40
0
 40
0
 40
1
 40
1
 40
1
 40
1
 10
1698.345230
 20
-1162.165142
 30
0.0
 10
1669.095331
 20
-1232.780646
 30
0.0
 10
1685.263318
 20
-1314.062607
 30
0.0
 10
1739.310085
 20
-1368.109374
 30
0.0
  0
SPLINE
  5
189
100
AcDbEntity
  8
0
 62
7
100
AcDbSpline
 70
8
 71
3
 72
8
 73
4
 74
0
 40
0
 40
0
 40
0
 40
0
 40
1
 40
1
 40
1
 40
1
 10
1739.310085
 20
-1368.109374
 30
0.0
 10
1793.356852
 20
-1422.156141
 30
0.0
 10
1874.638813
 20
-1438.324129
 30
0.0
 10
1945.254317
 20
-1409.074229
 30
0.0
  0
SPLINE
  5
18a
100
AcDbEntity
  8
0
 62
7
100
AcDbSpline
 70
8
 71
3
 72
8
 73
4
 74
0
 40
0
 40
0
 40
0
 40
0
 40
1
 40
1
 40
1
 40
1
 10
1945.254317
 20
-1409.074229
 30
0.0
 10
2015.869821
 20
-1379.824330
 30
0.0
 10
2061.912354
 20
-1310.916810
 30
0.0
 10
2061.912354
 20
-1234.483139
 30
0.0
  0
SPLINE
  5
18b
100
AcDbEntity
  8
0
 62
7
100
AcDbSpline
 70
8
 71
3
 72
8
 73
4
 74
0
 40
0
 40
0
 40
0
 40
0
 40
1
 40
1
 40
1
 40
1
 10
2061.912354
 20
-1234.483139
 30
0.0
 10
2061.912354
 20
-1184.363579
 30
0.0
 10
2042.002436
 20
-1136.296785
 30
0.0
 10
2006.562555
 20
-1100.856904
 30
0.0
  0
SPLINE
  5
18c
100
AcDbEntity
  8
0
 62
7
100
AcDbSpline
 70
8
 71
3
 72
8
 73
4
 74
0
 40
0
 40
0
 40
0
 40
0
 40
1
 40
1
 40
1
 40
1
 10
2006.562555
 20
-1100.856904
 30
0.0
 10
1971.122674
 20
-1065.417023
 30
0.0
 10
1923.055880
 20
-1045.507105
 30
0.0
 10
1872.936320
 20
-1045.507105
 30
0.0
  0
LWPOLYLINE
  5
18d
100
AcDbEntity
  8
0
 62
7
100
AcDbPolyline
 90
1
 70
1
 10
2243.596720
 20
167.342274
 30
0.0
  0
SPLINE
  5
18e
100
AcDbEntity
  8
0
 62
7
100
AcDbSpline
 70
8
 71
3
 72
8
 73
4
 74
0
 40
0
 40
0
 40
0
 40
0
 40
1
 40
1
 40
1
 40
1
 10
1019.809760
 20
-1776.498208
 30
0.0
 10
943.376089
 20
-1776.498208
 30
0.0
 10
874.468570
 20
-1822.540740
 30
0.0
 10
845.218670
 20
-1893.156244
 30
0.0
  0
SPLINE
  5
18f
100
AcDbEntity
  8
0
 62
7
100
AcDbSpline
 70
8
 71
3
 72
8
 73
4
 74
0
 40
0
 40
0
 40
0
 40
0
 40
1
 40
1
 40
1
 40
1
 10
845.218670
 20
-1893.156244
 30
0.0
 10
815.968771
 20
-1963.771748
 30
0.0
 10
832.136758
 20
-2045.053710
 30
0.0
 10
886.183525
 20
-2099.100477
 30
0.0
  0
SPLINE
  5
190
100
AcDbEntity
  8
0
 62
7
100
AcDbSpline
 70
8
 71
3
 72
8
 73
4
 74
0
 40
0
 40
0
 40
0
 40
0
 40
1
 40
1
 40
1
 40
1
 10
886.183525
 20
-2099.100477
 30
0.0
 10
940.230292
 20
-2153.147244
 30
0.0
 10
1021.512253
 20
-2169.315231
 30
0.0
 10
1092.127757
 20
-2140.065331
 30
0.0
  0
SPLINE
  5
191
100
AcDbEntity
  8
0
 62
7
100
AcDbSpline
 70
8
 71
3
 72
8
 73
4
 74
0
 40
0
 40
0
 40
0
 40
0
 40
1
 40
1
 40
1
 40
1
 10
1092.127757
 20
-2140.065331
 30
0.0
 10
1162.743261
 20
-2110.815432
 30
0.0
 10
1208.785794
 20
-2041.907912
 30
0.0
 10
1208.785794
 20
-1965.474242
 30
0.0
  0
SPLINE
  5
192
100
AcDbEntity
  8
0
 62
7
100
AcDbSpline
 70
8
 71
3
 72
8
 73
4
 74
0
 40
0
 40
0
 40
0
 40
0
 40
1
 40
1
 40
1
 40
1
 10
1208.785794
 20
-1965.474242
 30
0.0
 10
1208.785794
 20
-1915.354681
 30
0.0
 10
1188.875876
 20
-1867.287887
 30
0.0
 10
1153.435995
 20
-1831.848006
 30
0.0
  0
SPLINE
  5
193
100
AcDbEntity
  8
0
 62
7
100
AcDbSpline
 70
8
 71
3
 72
8
 73
4
 74
0
 40
0
 40
0
 40
0
 40
0
 40
1
 40
1
 40
1
 40
1
 10
1153.435995
 20
-1831.848006
 30
0.0
 10
1117.996114
 20
-1796.408125
 30
0.0
 10
1069.929320
 20
-1776.498208
 30
0.0
 10
1019.809760
 20
-1776.498208
 30
0.0
  0
LWPOLYLINE
  5
194
100
AcDbEntity
  8
0
 62
7
100
AcDbPolyline
 90
1
 70
1
 10
1872.936320
 20
-1045.507105
 30
0.0
  0
SPLINE
  5
195
100
AcDbEntity
  8
0
 62
7
100
AcDbSpline
 70
8
 71
3
 72
8
 73
4
 74
0
 40
0
 40
0
 40
0
 40
0
 40
1
 40
1
 40
1
 40
1
 10
2016.947000
 20
1430.625895
 30
0.0
 10
1940.513329
 20
1430.625895
 30
0.0
 10
1871.605810
 20
1384.583362
 30
0.0
 10
1842.355910
 20
1313.967858
 30
0.0
  0
SPLINE
  5
196
100
AcDbEntity
  8
0
 62
7
100
AcDbSpline
 70
8
 71
3
 72
8
 73
4
 74
0
 40
0
 40
0
 40
0
 40
0
 40
1
 40
1
 40
1
 40
1
 10
1842.355910
 20
1313.967858
 30
0.0
 10
1813.106011
 20
1243.352354
 30
0.0
 10
1829.273998
 20
1162.070393
 30
0.0
 10
1883.320765
 20
1108.023626
 30
0.0
  0
SPLINE
  5
197
100
AcDbEntity
  8
0
 62
7
100
AcDbSpline
 70
8
 71
3
 72
8
 73
4
 74
0
 40
0
 40
0
 40
0
 40
0
 40
1
 40
1
 40
1
 40
1
 10
1883.320765
 20
1108.023626
 30
0.0
 10
1937.367532
 20
1053.976859
 30
0.0
 10
2018.649493
 20
1037.808871
 30
0.0
 10
2089.264997
 20
1067.058771
 30
0.0
  0
SPLINE
  5
198
100
AcDbEntity
  8
0
 62
7
100
AcDbSpline
 70
8
 71
3
 72
8
 73
4
 74
0
 40
0
 40
0
 40
0
 40
0
 40
1
 40
1
 40
1
 40
1
 10
2089.264997
 20
1067.058771
 30
0.0
 10
2159.880501
 20
1096.308670
 30
0.0
 10
2205.923034
 20
1165.216190
 30
0.0
 10
2205.923034
 20
1241.649861
 30
0.0
  0
SPLINE
  5
199
100
AcDbEntity
  8
0
 62
7
100
AcDbSpline
 70
8
 71
3
 72
8
 73
4
 74
0
 40
0
 40
0
 40
0
 40
0
 40
1
 40
1
 40
1
 40
1
 10
2205.923034
 20
1241.649861
 30
0.0
 10
2205.923034
 20
1291.769421
 30
0.0
 10
2186.013116
 20
1339.836215
 30
0.0
 10
2150.573235
 20
1375.276096
 30
0.0
  0
SPLINE
  5
19a
100
AcDbEntity
  8
0
 62
7
100
AcDbSpline
 70
8
 71
3
 72
8
 73
4
 74
0
 40
0
 40
0
 40
0
 40
0
 40
1
 40
1
 40
1
 40
1
 10
2150.573235
 20
1375.276096
 30
0.0
 10
2115.133354
 20
1410.715977
 30
0.0
 10
2067.066560
 20
1430.625895
 30
0.0
 10
2016.947000
 20
1430.625895
 30
0.0
  0
LWPOLYLINE
  5
19b
100
AcDbEntity
  8
0
 62
7
100
AcDbPolyline
 90
1
 70
1
 10
1019.809760
 20
-1776.498208
 30
0.0
  0
SPLINE
  5
19c
100
AcDbEntity
  8
0
 62
7
100
AcDbSpline
 70
8
 71
3
 72
8
 73
4
 74
0
 40
0
 40
0
 40
0
 40
0
 40
1
 40
1
 40
1
 40
1
 10
1041.684800
 20
2283.752382
 30
0.0
 10
965.251129
 20
2283.752382
 30
0.0
 10
896.343610
 20
2237.709849
 30
0.0
 10
867.093710
 20
2167.094345
 30
0.0
  0
SPLINE
  5
19d
100
AcDbEntity
  8
0
 62
7
100
AcDbSpline
 70
8
 71
3
 72
8
 73
4
 74
0
 40
0
 40
0
 40
0
 40
0
 40
1
 40
1
 40
1
 40
1
 10
867.093710
 20
2167.094345
 30
0.0
 10
837.843811
 20
2096.478841
 30
0.0
 10
854.011798
 20
2015.196880
 30
0.0
 10
908.058565
 20
1961.150113
 30
0.0
  0
SPLINE
  5
19e
100
AcDbEntity
  8
0
 62
7
100
AcDbSpline
 70
8
 71
3
 72
8
 73
4
 74
0
 40
0
 40
0
 40
0
 40
0
 40
1
 40
1
 40
1
 40
1
 10
908.058565
 20
1961.150113
 30
0.0
 10
962.105332
 20
1907.103346
 30
0.0
 10
1043.387293
 20
1890.935358
 30
0.0
 10
1114.002797
 20
1920.185258
 30
0.0
  0
SPLINE
  5
19f
100
AcDbEntity
  8
0
 62
7
100
AcDbSpline
 70
8
 71
3
 72
8
 73
4
 74
0
 40
0
 40
0
 40
0
 40
0
 40
1
 40
1
 40
1
 40
1
 10
1114.002797
 20
1920.185258
 30
0.0
 10
1184.618301
 20
1949.435157
 30
0.0
 10
1230.660834
 20
2018.342677
 30
0.0
 10
1230.660834
 20
2094.776348
 30
0.0
  0
SPLINE
  5
1a0
100
AcDbEntity
  8
0
 62
7
100
AcDbSpline
 70
8
 71
3
 72
8
 73
4
 74
0
 40
0
 40
0
 40
0
 40
0
 40
1
 40
1
 40
1
 40
1
 10
1230.660834
 20
2094.776348
 30
0.0
 10
1230.660834
 20
2199.144929
 30
0.0
 10
1146.053382
 20
2283.752382
 30
0.0
 10
1041.684800
 20
2283.752382
 30
0.0
  0
LWPOLYLINE
  5
1a1
100
AcDbEntity
  8
0
 62
7
100
AcDbPolyline
 90
1
 70
1
 10
2016.947000
 20
1430.625895
 30
0.0
  0
SPLINE
  5
1a2
100
AcDbEntity
  8
0
 62
7
100
AcDbSpline
 70
8
 71
3
 72
8
 73
4
 74
0
 40
0
 40
0
 40
0
 40
0
 40
1
 40
1
 40
1
 40
1
 10
-68.474088
 20
231.144413
 30
0.0
 10
-144.907759
 20
231.144413
 30
0.0
 10
-213.815278
 20
185.101881
 30
0.0
 10
-243.065178
 20
114.486377
 30
0.0
  0
SPLINE
  5
1a3
100
AcDbEntity
  8
0
 62
7
100
AcDbSpline
 70
8
 71
3
 72
8
 73
4
 74
0
 40
0
 40
0
 40
0
 40
0
 40
1
 40
1
 40
1
 40
1
 10
-243.065178
 20
114.486377
 30
0.0
 10
-272.315077
 20
43.870872
 30
0.0
 10
-256.147090
 20
-37.411089
 30
0.0
 10
-202.100323
 20
-91.457856
 30
0.0
  0
SPLINE
  5
1a4
100
AcDbEntity
  8
0
 62
7
100
AcDbSpline
 70
8
 71
3
 72
8
 73
4
 74
0
 40
0
 40
0
 40
0
 40
0
 40
1
 40
1
 40
1
 40
1
 10
-202.100323
 20
-91.457856
 30
0.0
 10
-148.053556
 20
-145.504623
 30
0.0
 10
-66.771594
 20
-161.672610
 30
0.0
 10
3.843910
 20
-132.422711
 30
0.0
  0
SPLINE
  5
1a5
100
AcDbEntity
  8
0
 62
7
100
AcDbSpline
 70
8
 71
3
 72
8
 73
4
 74
0
 40
0
 40
0
 40
0
 40
0
 40
1
 40
1
 40
1
 40
1
 10
3.843910
 20
-132.422711
 30
0.0
 10
74.459414
 20
-103.172811
 30
0.0
 10
120.501946
 20
-34.265292
 30
0.0
 10
120.501946
 20
42.168379
 30
0.0
  0
SPLINE
  5
1a6
100
AcDbEntity
  8
0
 62
7
100
AcDbSpline
 70
8
 71
3
 72
8
 73
4
 74
0
 40
0
 40
0
 40
0
 40
0
 40
1
 40
1
 40
1
 40
1
 10
120.501946
 20
42.168379
 30
0.0
 10
120.501946
 20
92.287940
 30
0.0
 10
100.592028
 20
140.354733
 30
0.0
 10
65.152147
 20
175.794614
 30
0.0
  0
SPLINE
  5
1a7
100
AcDbEntity
  8
0
 62
7
100
AcDbSpline
 70
8
 71
3
 72
8
 73
4
 74
0
 40
0
 40
0
 40
0
 40
0
 40
1
 40
1
 40
1
 40
1
 10
65.152147
 20
175.794614
 30
0.0
 10
29.712266
 20
211.234495
 30
0.0
 10
-18.354527
 20
231.144413
 30
0.0
 10
-68.474088
 20
231.144413
 30
0.0
  0
LWPOLYLINE
  5
1a8
100
AcDbEntity
  8
0
 62
7
100
AcDbPolyline
 90
1
 70
1
 10
1041.684800
 20
2283.752382
 30
0.0
  0
SPLINE
  5
1a9
100
AcDbEntity
  8
0
 62
7
100
AcDbSpline
 70
8
 71
3
 72
8
 73
4
 74
0
 40
0
 40
0
 40
0
 40
0
 40
1
 40
1
 40
1
 40
1
 10
175.190160
 20
1540.608674
 30
0.0
 10
98.756489
 20
1540.608674
 30
0.0
 10
29.848970
 20
1494.566141
 30
0.0
 10
0.599070
 20
1423.950637
 30
0.0
  0
SPLINE
  5
1aa
100
AcDbEntity
  8
0
 62
7
100
AcDbSpline
 70
8
 71
3
 72
8
 73
4
 74
0
 40
0
 40
0
 40
0
 40
0
 40
1
 40
1
 40
1
 40
1
 10
0.599070
 20
1423.950637
 30
0.0
 10
-28.650829
 20
1353.335133
 30
0.0
 10
-12.482842
 20
1272.053172
 30
0.0
 10
41.563925
 20
1218.006405
 30
0.0
  0
SPLINE
  5
1ab
100
AcDbEntity
  8
0
 62
7
100
AcDbSpline
 70
8
 71
3
 72
8
 73
4
 74
0
 40
0
 40
0
 40
0
 40
0
 40
1
 40
1
 40
1
 40
1
 10
41.563925
 20
1218.006405
 30
0.0
 10
95.610692
 20
1163.959638
 30
0.0
 10
176.892653
 20
1147.791651
 30
0.0
 10
247.508157
 20
1177.041550
 30
0.0
  0
SPLINE
  5
1ac
100
AcDbEntity
  8
0
 62
7
100
AcDbSpline
 70
8
 71
3
 72
8
 73
4
 74
0
 40
0
 40
0
 40
0
 40
0
 40
1
 40
1
 40
1
 40
1
 10
247.508157
 20
1177.041550
 30
0.0
 10
318.123661
 20
1206.291450
 30
0.0
 10
364.166194
 20
1275.198969
 30
0.0
 10
364.166194
 20
1351.632640
 30
0.0
  0
SPLINE
  5
1ad
100
AcDbEntity
  8
0
 62
7
100
AcDbSpline
 70
8
 71
3
 72
8
 73
4
 74
0
 40
0
 40
0
 40
0
 40
0
 40
1
 40
1
 40
1
 40
1
 10
364.166194
 20
1351.632640
 30
0.0
 10
364.166194
 20
1456.001222
 30
0.0
 10
279.558742
 20
1540.608674
 30
0.0
 10
175.190160
 20
1540.608674
 30
0.0
  0
LWPOLYLINE
  5
1ae
100
AcDbEntity
  8
0
 62
7
100
AcDbPolyline
 90
1
 70
1
 10
-68.474088
 20
231.144413
 30
0.0
  0
SPLINE
  5
1af
100
AcDbEntity
  8
0
 62
7
100
AcDbSpline
 70
8
 71
3
 72
8
 73
4
 74
0
 40
0
 40
0
 40
0
 40
0
 40
1
 40
1
 40
1
 40
1
 10
235.954160
 20
-1021.809206
 30
0.0
 10
159.520489
 20
-1021.809206
 30
0.0
 10
90.612970
 20
-1067.851739
 30
0.0
 10
61.363070
 20
-1138.467243
 30
0.0
  0
SPLINE
  5
1b0
100
AcDbEntity
  8
0
 62
7
100
AcDbSpline
 70
8
 71
3
 72
8
 73
4
 74
0
 40
0
 40
0
 40
0
 40
0
 40
1
 40
1
 40
1
 40
1
 10
61.363070
 20
-1138.467243
 30
0.0
 10
32.113171
 20
-1209.082747
 30
0.0
 10
48.281158
 20
-1290.364708
 30
0.0
 10
102.327925
 20
-1344.411475
 30
0.0
  0
SPLINE
  5
1b1
100
AcDbEntity
  8
0
 62
7
100
AcDbSpline
 70
8
 71
3
 72
8
 73
4
 74
0
 40
0
 40
0
 40
0
 40
0
 40
1
 40
1
 40
1
 40
1
 10
102.327925
 20
-1344.411475
 30
0.0
 10
156.374692
 20
-1398.458242
 30
0.0
 10
237.656653
 20
-1414.626229
 30
0.0
 10
308.272157
 20
-1385.376330
 30
0.0
  0
SPLINE
  5
1b2
100
AcDbEntity
  8
0
 62
7
100
AcDbSpline
 70
8
 71
3
 72
8
 73
4
 74
0
 40
0
 40
0
 40
0
 40
0
 40
1
 40
1
 40
1
 40
1
 10
308.272157
 20
-1385.376330
 30
0.0
 10
378.887661
 20
-1356.126430
 30
0.0
 10
424.930194
 20
-1287.218911
 30
0.0
 10
424.930194
 20
-1210.785240
 30
0.0
  0
SPLINE
  5
1b3
100
AcDbEntity
  8
0
 62
7
100
AcDbSpline
 70
8
 71
3
 72
8
 73
4
 74
0
 40
0
 40
0
 40
0
 40
0
 40
1
 40
1
 40
1
 40
1
 10
424.930194
 20
-1210.785240
 30
0.0
 10
424.930194
 20
-1160.665680
 30
0.0
 10
405.020276
 20
-1112.598886
 30
0.0
 10
369.580395
 20
-1077.159005
 30
0.0
  0
SPLINE
  5
1b4
100
AcDbEntity
  8
0
 62
7
100
AcDbSpline
 70
8
 71
3
 72
8
 73
4
 74
0
 40
0
 40
0
 40
0
 40
0
 40
1
 40
1
 40
1
 40
1
 10
369.580395
 20
-1077.159005
 30
0.0
 10
334.140514
 20
-1041.719124
 30
0.0
 10
286.073720
 20
-1021.809206
 30
0.0
 10
235.954160
 20
-1021.809206
 30
0.0
  0
LWPOLYLINE
  5
1b5
100
AcDbEntity
  8
0
 62
7
100
AcDbPolyline
 90
1
 70
1
 10
175.190160
 20
1540.608674
 30
0.0
  0
SPLINE
  5
1b6
100
AcDbEntity
  8
0
 62
7
100
AcDbSpline
 70
8
 71
3
 72
8
 73
4
 74
0
 40
0
 40
0
 40
0
 40
0
 40
1
 40
1
 40
1
 40
1
 10
5558.880560
 20
1777.588280
 30
0.0
 10
5253.237640
 20
2294.689920
 30
0.0
 10
4872.247360
 20
2553.544560
 30
0.0
 10
4416.517360
 20
2553.544560
 30
0.0
  0
SPLINE
  5
1b7
100
AcDbEntity
  8
0
 62
7
100
AcDbSpline
 70
8
 71
3
 72
8
 73
4
 74
0
 40
0
 40
0
 40
0
 40
0
 40
1
 40
1
 40
1
 40
1
 10
4416.517360
 20
2553.544560
 30
0.0
 10
3960.787360
 20
2553.544560
 30
0.0
 10
3575.543600
 20
2297.120480
 30
0.0
 10
3269.900680
 20
1784.272320
 30
0.0
  0
SPLINE
  5
1b8
100
AcDbEntity
  8
0
 62
7
100
AcDbSpline
 70
8
 71
3
 72
8
 73
4
 74
0
 40
0
 40
0
 40
0
 40
0
 40
1
 40
1
 40
1
 40
1
 10
3269.900680
 20
1784.272320
 30
0.0
 10
2984.917520
 20
1305.452000
 30
0.0
 10
2842.122120
 20
722.117600
 30
0.0
 10
2842.122120
 20
35.484400
 30
0.0
  0
SPLINE
  5
1b9
100
AcDbEntity
  8
0
 62
7
100
AcDbSpline
 70
8
 71
3
 72
8
 73
4
 74
0
 40
0
 40
0
 40
0
 40
0
 40
1
 40
1
 40
1
 40
1
 10
2842.122120
 20
35.484400
 30
0.0
 10
2842.122120
 20
-651.148800
 30
0.0
 10
2984.917520
 20
-1234.483200
 30
0.0
 10
3269.900680
 20
-1713.303520
 30
0.0
  0
SPLINE
  5
1ba
100
AcDbEntity
  8
0
 62
7
100
AcDbSpline
 70
8
 71
3
 72
8
 73
4
 74
0
 40
0
 40
0
 40
0
 40
0
 40
1
 40
1
 40
1
 40
1
 10
3269.900680
 20
-1713.303520
 30
0.0
 10
3575.543600
 20
-2230.405160
 30
0.0
 10
3957.749160
 20
-2489.259800
 30
0.0
 10
4416.517360
 20
-2489.259800
 30
0.0
  0
SPLINE
  5
1bb
100
AcDbEntity
  8
0
 62
7
100
AcDbSpline
 70
8
 71
3
 72
8
 73
4
 74
0
 40
0
 40
0
 40
0
 40
0
 40
1
 40
1
 40
1
 40
1
 10
4416.517360
 20
-2489.259800
 30
0.0
 10
4875.285560
 20
-2489.259800
 30
0.0
 10
5250.199440
 20
-2230.405160
 30
0.0
 10
5558.880560
 20
-1713.303520
 30
0.0
  0
SPLINE
  5
1bc
100
AcDbEntity
  8
0
 62
7
100
AcDbSpline
 70
8
 71
3
 72
8
 73
4
 74
0
 40
0
 40
0
 40
0
 40
0
 40
1
 40
1
 40
1
 40
1
 10
5558.880560
 20
-1713.303520
 30
0.0
 10
5846.901920
 20
-1230.229720
 30
0.0
 10
5990.912600
 20
-646.895320
 30
0.0
 10
5990.912600
 20
35.484400
 30
0.0
  0
SPLINE
  5
1bd
100
AcDbEntity
  8
0
 62
7
100
AcDbSpline
 70
8
 71
3
 72
8
 73
4
 74
0
 40
0
 40
0
 40
0
 40
0
 40
1
 40
1
 40
1
 40
1
 10
5990.912600
 20
35.484400
 30
0.0
 10
5990.912600
 20
717.864120
 30
0.0
 10
5846.901920
 20
1294.514480
 30
0.0
 10
5558.880560
 20
1777.588280
 30
0.0
  0
LWPOLYLINE
  5
1be
100
AcDbEntity
  8
0
 62
7
100
AcDbPolyline
 90
1
 70
1
 10
235.954160
 20
-1021.809206
 30
0.0
  0
SPLINE
  5
1bf
100
AcDbEntity
  8
0
 62
7
100
AcDbSpline
 70
8
 71
3
 72
8
 73
4
 74
0
 40
0
 40
0
 40
0
 40
0
 40
1
 40
1
 40
1
 40
1
 10
5104.365840
 20
-1096.548920
 30
0.0
 10
4925.112040
 20
-1427.105080
 30
0.0
 10
4685.094240
 20
-1607.574160
 30
0.0
 10
4385.527720
 20
-1637.348520
 30
0.0
  0
LWPOLYLINE
  5
1c0
100
AcDbEntity
  8
0
 62
7
100
AcDbPolyline
 90
1
 70
1
 10
5558.880560
 20
1777.588280
 30
0.0
  0
SPLINE
  5
1c1
100
AcDbEntity
  8
0
 62
7
100
AcDbSpline
 70
8
 71
3
 72
8
 73
4
 74
0
 40
0
 40
0
 40
0
 40
0
 40
1
 40
1
 40
1
 40
1
 10
4385.527720
 20
1701.025640
 30
0.0
 10
4685.701880
 20
1671.251280
 30
0.0
 10
4925.112040
 20
1493.212760
 30
0.0
 10
5104.365840
 20
1166.910080
 30
0.0
  0
SPLINE
  5
1c2
100
AcDbEntity
  8
0
 62
7
100
AcDbSpline
 70
8
 71
3
 72
8
 73
4
 74
0
 40
0
 40
0
 40
0
 40
0
 40
1
 40
1
 40
1
 40
1
 10
5104.365840
 20
1166.910080
 30
0.0
 10
5283.619640
 20
840.607400
 30
0.0
 10
5373.550360
 20
463.262960
 30
0.0
 10
5373.550360
 20
34.876760
 30
0.0
  0
SPLINE
  5
1c3
100
AcDbEntity
  8
0
 62
7
100
AcDbSpline
 70
8
 71
3
 72
8
 73
4
 74
0
 40
0
 40
0
 40
0
 40
0
 40
1
 40
1
 40
1
 40
1
 10
5373.550360
 20
34.876760
 30
0.0
 10
5373.550360
 20
-393.509440
 30
0.0
 10
5283.619640
 20
-766.600400
 30
0.0
 10
5104.365840
 20
-1097.156560
 30
0.0
  0
LWPOLYLINE
  5
1c4
100
AcDbEntity
  8
0
 62
7
100
AcDbPolyline
 90
2
 70
0
 10
4385.527720
 20
-1637.348520
 30
0.0
 10
4385.527720
 20
1701.025640
 30
0.0
  0
SPLINE
  5
1c5
100
AcDbEntity
  8
0
 62
7
100
AcDbSpline
 70
8
 71
3
 72
8
 73
4
 74
0
 40
0
 40
0
 40
0
 40
0
 40
1
 40
1
 40
1
 40
1
 10
5638.482008
 20
161.873635
 30
0.0
 10
5562.294104
 20
161.873635
 30
0.0
 10
5493.608152
 20
115.979150
 30
0.0
 10
5464.452304
 20
45.590705
 30
0.0
  0
SPLINE
  5
1c6
100
AcDbEntity
  8
0
 62
7
100
AcDbSpline
 70
8
 71
3
 72
8
 73
4
 74
0
 40
0
 40
0
 40
0
 40
0
 40
1
 40
1
 40
1
 40
1
 10
5464.452304
 20
45.590705
 30
0.0
 10
5435.296456
 20
-24.797740
 30
0.0
 10
5451.412456
 20
-105.818344
 30
0.0
 10
5505.285439
 20
-159.691327
 30
0.0
  0
SPLINE
  5
1c7
100
AcDbEntity
  8
0
 62
7
100
AcDbSpline
 70
8
 71
3
 72
8
 73
4
 74
0
 40
0
 40
0
 40
0
 40
0
 40
1
 40
1
 40
1
 40
1
 10
5505.285439
 20
-159.691327
 30
0.0
 10
5559.158422
 20
-213.564310
 30
0.0
 10
5640.179027
 20
-229.680311
 30
0.0
 10
5710.567471
 20
-200.524462
 30
0.0
  0
SPLINE
  5
1c8
100
AcDbEntity
  8
0
 62
7
100
AcDbSpline
 70
8
 71
3
 72
8
 73
4
 74
0
 40
0
 40
0
 40
0
 40
0
 40
1
 40
1
 40
1
 40
1
 10
5710.567471
 20
-200.524462
 30
0.0
 10
5780.955916
 20
-171.368614
 30
0.0
 10
5826.850402
 20
-102.682662
 30
0.0
 10
5826.850402
 20
-26.494758
 30
0.0
  0
SPLINE
  5
1c9
100
AcDbEntity
  8
0
 62
7
100
AcDbSpline
 70
8
 71
3
 72
8
 73
4
 74
0
 40
0
 40
0
 40
0
 40
0
 40
1
 40
1
 40
1
 40
1
 10
5826.850402
 20
-26.494758
 30
0.0
 10
5826.850402
 20
23.463646
 30
0.0
 10
5807.004503
 20
71.375884
 30
0.0
 10
5771.678576
 20
106.701810
 30
0.0
  0
SPLINE
  5
1ca
100
AcDbEntity
  8
0
 62
7
100
AcDbSpline
 70
8
 71
3
 72
8
 73
4
 74
0
 40
0
 40
0
 40
0
 40
0
 40
1
 40
1
 40
1
 40
1
 10
5771.678576
 20
106.701810
 30
0.0
 10
5736.352650
 20
142.027737
 30
0.0
 10
5688.440412
 20
161.873635
 30
0.0
 10
5638.482008
 20
161.873635
 30
0.0
  0
LWPOLYLINE
  5
1cb
100
AcDbEntity
  8
0
 62
7
100
AcDbPolyline
 90
2
 70
0
 10
5104.365840
 20
-1097.156560
 30
0.0
 10
5104.365840
 20
-1096.548920
 30
0.0
  0
SPLINE
  5
1cc
100
AcDbEntity
  8
0
 62
7
100
AcDbSpline
 70
8
 71
3
 72
8
 73
4
 74
0
 40
0
 40
0
 40
0
 40
0
 40
1
 40
1
 40
1
 40
1
 10
5372.335080
 20
-1116.601107
 30
0.0
 10
5295.901409
 20
-1116.601107
 30
0.0
 10
5226.993890
 20
-1162.643639
 30
0.0
 10
5197.743990
 20
-1233.259143
 30
0.0
  0
SPLINE
  5
1cd
100
AcDbEntity
  8
0
 62
7
100
AcDbSpline
 70
8
 71
3
 72
8
 73
4
 74
0
 40
0
 40
0
 40
0
 40
0
 40
1
 40
1
 40
1
 40
1
 10
5197.743990
 20
-1233.259143
 30
0.0
 10
5168.494091
 20
-1303.874648
 30
0.0
 10
5184.662078
 20
-1385.156609
 30
0.0
 10
5238.708845
 20
-1439.203376
 30
0.0
  0
SPLINE
  5
1ce
100
AcDbEntity
  8
0
 62
7
100
AcDbSpline
 70
8
 71
3
 72
8
 73
4
 74
0
 40
0
 40
0
 40
0
 40
0
 40
1
 40
1
 40
1
 40
1
 10
5238.708845
 20
-1439.203376
 30
0.0
 10
5292.755612
 20
-1493.250143
 30
0.0
 10
5374.037573
 20
-1509.418130
 30
0.0
 10
5444.653077
 20
-1480.168231
 30
0.0
  0
SPLINE
  5
1cf
100
AcDbEntity
  8
0
 62
7
100
AcDbSpline
 70
8
 71
3
 72
8
 73
4
 74
0
 40
0
 40
0
 40
0
 40
0
 40
1
 40
1
 40
1
 40
1
 10
5444.653077
 20
-1480.168231
 30
0.0
 10
5515.268581
 20
-1450.918331
 30
0.0
 10
5561.311114
 20
-1382.010812
 30
0.0
 10
5561.311114
 20
-1305.577141
 30
0.0
  0
SPLINE
  5
1d0
100
AcDbEntity
  8
0
 62
7
100
AcDbSpline
 70
8
 71
3
 72
8
 73
4
 74
0
 40
0
 40
0
 40
0
 40
0
 40
1
 40
1
 40
1
 40
1
 10
5561.311114
 20
-1305.577141
 30
0.0
 10
5561.311114
 20
-1255.457580
 30
0.0
 10
5541.401196
 20
-1207.390787
 30
0.0
 10
5505.961315
 20
-1171.950906
 30
0.0
  0
SPLINE
  5
1d1
100
AcDbEntity
  8
0
 62
7
100
AcDbSpline
 70
8
 71
3
 72
8
 73
4
 74
0
 40
0
 40
0
 40
0
 40
0
 40
1
 40
1
 40
1
 40
1
 10
5505.961315
 20
-1171.950906
 30
0.0
 10
5470.521434
 20
-1136.511025
 30
0.0
 10
5422.454640
 20
-1116.601107
 30
0.0
 10
5372.335080
 20
-1116.601107
 30
0.0
  0
LWPOLYLINE
  5
1d2
100
AcDbEntity
  8
0
 62
7
100
AcDbPolyline
 90
1
 70
1
 10
5638.482008
 20
161.873635
 30
0.0
  0
SPLINE
  5
1d3
100
AcDbEntity
  8
0
 62
7
100
AcDbSpline
 70
8
 71
3
 72
8
 73
4
 74
0
 40
0
 40
0
 40
0
 40
0
 40
1
 40
1
 40
1
 40
1
 10
4519.207912
 20
-1847.591966
 30
0.0
 10
4442.774241
 20
-1847.591966
 30
0.0
 10
4373.866722
 20
-1893.634499
 30
0.0
 10
4344.616822
 20
-1964.250003
 30
0.0
  0
SPLINE
  5
1d4
100
AcDbEntity
  8
0
 62
7
100
AcDbSpline
 70
8
 71
3
 72
8
 73
4
 74
0
 40
0
 40
0
 40
0
 40
0
 40
1
 40
1
 40
1
 40
1
 10
4344.616822
 20
-1964.250003
 30
0.0
 10
4315.366923
 20
-2034.865507
 30
0.0
 10
4331.534910
 20
-2116.147468
 30
0.0
 10
4385.581677
 20
-2170.194235
 30
0.0
  0
SPLINE
  5
1d5
100
AcDbEntity
  8
0
 62
7
100
AcDbSpline
 70
8
 71
3
 72
8
 73
4
 74
0
 40
0
 40
0
 40
0
 40
0
 40
1
 40
1
 40
1
 40
1
 10
4385.581677
 20
-2170.194235
 30
0.0
 10
4439.628444
 20
-2224.241002
 30
0.0
 10
4520.910406
 20
-2240.408989
 30
0.0
 10
4591.525910
 20
-2211.159090
 30
0.0
  0
SPLINE
  5
1d6
100
AcDbEntity
  8
0
 62
7
100
AcDbSpline
 70
8
 71
3
 72
8
 73
4
 74
0
 40
0
 40
0
 40
0
 40
0
 40
1
 40
1
 40
1
 40
1
 10
4591.525910
 20
-2211.159090
 30
0.0
 10
4662.141414
 20
-2181.909190
 30
0.0
 10
4708.183946
 20
-2113.001671
 30
0.0
 10
4708.183946
 20
-2036.568000
 30
0.0
  0
SPLINE
  5
1d7
100
AcDbEntity
  8
0
 62
7
100
AcDbSpline
 70
8
 71
3
 72
8
 73
4
 74
0
 40
0
 40
0
 40
0
 40
0
 40
1
 40
1
 40
1
 40
1
 10
4708.183946
 20
-2036.568000
 30
0.0
 10
4708.183946
 20
-1932.199418
 30
0.0
 10
4623.576494
 20
-1847.591966
 30
0.0
 10
4519.207912
 20
-1847.591966
 30
0.0
  0
LWPOLYLINE
  5
1d8
100
AcDbEntity
  8
0
 62
7
100
AcDbPolyline
 90
1
 70
1
 10
5372.335080
 20
-1116.601107
 30
0.0
  0
SPLINE
  5
1d9
100
AcDbEntity
  8
0
 62
7
100
AcDbSpline
 70
8
 71
3
 72
8
 73
4
 74
0
 40
0
 40
0
 40
0
 40
0
 40
1
 40
1
 40
1
 40
1
 10
5449.505968
 20
1425.764775
 30
0.0
 10
5373.072297
 20
1425.764775
 30
0.0
 10
5304.164777
 20
1379.722242
 30
0.0
 10
5274.914878
 20
1309.106738
 30
0.0
  0
SPLINE
  5
1da
100
AcDbEntity
  8
0
 62
7
100
AcDbSpline
 70
8
 71
3
 72
8
 73
4
 74
0
 40
0
 40
0
 40
0
 40
0
 40
1
 40
1
 40
1
 40
1
 10
5274.914878
 20
1309.106738
 30
0.0
 10
5245.664978
 20
1238.491234
 30
0.0
 10
5261.832966
 20
1157.209273
 30
0.0
 10
5315.879733
 20
1103.162506
 30
0.0
  0
SPLINE
  5
1db
100
AcDbEntity
  8
0
 62
7
100
AcDbSpline
 70
8
 71
3
 72
8
 73
4
 74
0
 40
0
 40
0
 40
0
 40
0
 40
1
 40
1
 40
1
 40
1
 10
5315.879733
 20
1103.162506
 30
0.0
 10
5369.926500
 20
1049.115739
 30
0.0
 10
5451.208461
 20
1032.947751
 30
0.0
 10
5521.823965
 20
1062.197651
 30
0.0
  0
SPLINE
  5
1dc
100
AcDbEntity
  8
0
 62
7
100
AcDbSpline
 70
8
 71
3
 72
8
 73
4
 74
0
 40
0
 40
0
 40
0
 40
0
 40
1
 40
1
 40
1
 40
1
 10
5521.823965
 20
1062.197651
 30
0.0
 10
5592.439469
 20
1091.447550
 30
0.0
 10
5638.482002
 20
1160.355070
 30
0.0
 10
5638.482002
 20
1236.788741
 30
0.0
  0
SPLINE
  5
1dd
100
AcDbEntity
  8
0
 62
7
100
AcDbSpline
 70
8
 71
3
 72
8
 73
4
 74
0
 40
0
 40
0
 40
0
 40
0
 40
1
 40
1
 40
1
 40
1
 10
5638.482002
 20
1236.788741
 30
0.0
 10
5638.482002
 20
1341.157322
 30
0.0
 10
5553.874549
 20
1425.764775
 30
0.0
 10
5449.505968
 20
1425.764775
 30
0.0
  0
LWPOLYLINE
  5
1de
100
AcDbEntity
  8
0
 62
7
100
AcDbPolyline
 90
1
 70
1
 10
4519.207912
 20
-1847.591966
 30
0.0
  0
SPLINE
  5
1df
100
AcDbEntity
  8
0
 62
7
100
AcDbSpline
 70
8
 71
3
 72
8
 73
4
 74
0
 40
0
 40
0
 40
0
 40
0
 40
1
 40
1
 40
1
 40
1
 10
4474.850800
 20
2278.283610
 30
0.0
 10
4398.417129
 20
2278.283610
 30
0.0
 10
4329.509610
 20
2232.241077
 30
0.0
 10
4300.259710
 20
2161.625573
 30
0.0
  0
SPLINE
  5
1e0
100
AcDbEntity
  8
0
 62
7
100
AcDbSpline
 70
8
 71
3
 72
8
 73
4
 74
0
 40
0
 40
0
 40
0
 40
0
 40
1
 40
1
 40
1
 40
1
 10
4300.259710
 20
2161.625573
 30
0.0
 10
4271.009811
 20
2091.010069
 30
0.0
 10
4287.177798
 20
2009.728108
 30
0.0
 10
4341.224565
 20
1955.681341
 30
0.0
  0
SPLINE
  5
1e1
100
AcDbEntity
  8
0
 62
7
100
AcDbSpline
 70
8
 71
3
 72
8
 73
4
 74
0
 40
0
 40
0
 40
0
 40
0
 40
1
 40
1
 40
1
 40
1
 10
4341.224565
 20
1955.681341
 30
0.0
 10
4395.271332
 20
1901.634574
 30
0.0
 10
4476.553293
 20
1885.466586
 30
0.0
 10
4547.168797
 20
1914.716486
 30
0.0
  0
SPLINE
  5
1e2
100
AcDbEntity
  8
0
 62
7
100
AcDbSpline
 70
8
 71
3
 72
8
 73
4
 74
0
 40
0
 40
0
 40
0
 40
0
 40
1
 40
1
 40
1
 40
1
 10
4547.168797
 20
1914.716486
 30
0.0
 10
4617.784301
 20
1943.966385
 30
0.0
 10
4663.826834
 20
2012.873905
 30
0.0
 10
4663.826834
 20
2089.307576
 30
0.0
  0
SPLINE
  5
1e3
100
AcDbEntity
  8
0
 62
7
100
AcDbSpline
 70
8
 71
3
 72
8
 73
4
 74
0
 40
0
 40
0
 40
0
 40
0
 40
1
 40
1
 40
1
 40
1
 10
4663.826834
 20
2089.307576
 30
0.0
 10
4663.826834
 20
2139.427136
 30
0.0
 10
4643.916916
 20
2187.493930
 30
0.0
 10
4608.477035
 20
2222.933811
 30
0.0
  0
SPLINE
  5
1e4
100
AcDbEntity
  8
0
 62
7
100
AcDbSpline
 70
8
 71
3
 72
8
 73
4
 74
0
 40
0
 40
0
 40
0
 40
0
 40
1
 40
1
 40
1
 40
1
 10
4608.477035
 20
2222.933811
 30
0.0
 10
4573.037154
 20
2258.373692
 30
0.0
 10
4524.970360
 20
2278.283610
 30
0.0
 10
4474.850800
 20
2278.283610
 30
0.0
  0
LWPOLYLINE
  5
1e5
100
AcDbEntity
  8
0
 62
7
100
AcDbPolyline
 90
1
 70
1
 10
5449.505968
 20
1425.764775
 30
0.0
  0
SPLINE
  5
1e6
100
AcDbEntity
  8
0
 62
7
100
AcDbSpline
 70
8
 71
3
 72
8
 73
4
 74
0
 40
0
 40
0
 40
0
 40
0
 40
1
 40
1
 40
1
 40
1
 10
3430.925280
 20
159.442893
 30
0.0
 10
3354.491609
 20
159.442893
 30
0.0
 10
3285.584090
 20
113.400361
 30
0.0
 10
3256.334190
 20
42.784857
 30
0.0
  0
SPLINE
  5
1e7
100
AcDbEntity
  8
0
 62
7
100
AcDbSpline
 70
8
 71
3
 72
8
 73
4
 74
0
 40
0
 40
0
 40
0
 40
0
 40
1
 40
1
 40
1
 40
1
 10
3256.334190
 20
42.784857
 30
0.0
 10
3227.084291
 20
-27.830648
 30
0.0
 10
3243.252278
 20
-109.112609
 30
0.0
 10
3297.299045
 20
-163.159376
 30
0.0
  0
SPLINE
  5
1e8
100
AcDbEntity
  8
0
 62
7
100
AcDbSpline
 70
8
 71
3
 72
8
 73
4
 74
0
 40
0
 40
0
 40
0
 40
0
 40
1
 40
1
 40
1
 40
1
 10
3297.299045
 20
-163.159376
 30
0.0
 10
3351.345812
 20
-217.206143
 30
0.0
 10
3432.627773
 20
-233.374130
 30
0.0
 10
3503.243277
 20
-204.124231
 30
0.0
  0
SPLINE
  5
1e9
100
AcDbEntity
  8
0
 62
7
100
AcDbSpline
 70
8
 71
3
 72
8
 73
4
 74
0
 40
0
 40
0
 40
0
 40
0
 40
1
 40
1
 40
1
 40
1
 10
3503.243277
 20
-204.124231
 30
0.0
 10
3573.858781
 20
-174.874331
 30
0.0
 10
3619.901314
 20
-105.966812
 30
0.0
 10
3619.901314
 20
-29.533141
 30
0.0
  0
SPLINE
  5
1ea
100
AcDbEntity
  8
0
 62
7
100
AcDbSpline
 70
8
 71
3
 72
8
 73
4
 74
0
 40
0
 40
0
 40
0
 40
0
 40
1
 40
1
 40
1
 40
1
 10
3619.901314
 20
-29.533141
 30
0.0
 10
3619.901314
 20
20.586420
 30
0.0
 10
3599.991396
 20
68.653213
 30
0.0
 10
3564.551515
 20
104.093094
 30
0.0
  0
SPLINE
  5
1eb
100
AcDbEntity
  8
0
 62
7
100
AcDbSpline
 70
8
 71
3
 72
8
 73
4
 74
0
 40
0
 40
0
 40
0
 40
0
 40
1
 40
1
 40
1
 40
1
 10
3564.551515
 20
104.093094
 30
0.0
 10
3529.111634
 20
139.532975
 30
0.0
 10
3481.044840
 20
159.442893
 30
0.0
 10
3430.925280
 20
159.442893
 30
0.0
  0
LWPOLYLINE
  5
1ec
100
AcDbEntity
  8
0
 62
7
100
AcDbPolyline
 90
1
 70
1
 10
4474.850800
 20
2278.283610
 30
0.0
  0
SPLINE
  5
1ed
100
AcDbEntity
  8
0
 62
7
100
AcDbSpline
 70
8
 71
3
 72
8
 73
4
 74
0
 40
0
 40
0
 40
0
 40
0
 40
1
 40
1
 40
1
 40
1
 10
3674.588920
 20
1469.514794
 30
0.0
 10
3598.155249
 20
1469.514794
 30
0.0
 10
3529.247730
 20
1423.472261
 30
0.0
 10
3499.997830
 20
1352.856757
 30
0.0
  0
SPLINE
  5
1ee
100
AcDbEntity
  8
0
 62
7
100
AcDbSpline
 70
8
 71
3
 72
8
 73
4
 74
0
 40
0
 40
0
 40
0
 40
0
 40
1
 40
1
 40
1
 40
1
 10
3499.997830
 20
1352.856757
 30
0.0
 10
3470.747931
 20
1282.241253
 30
0.0
 10
3486.915918
 20
1200.959292
 30
0.0
 10
3540.962685
 20
1146.912525
 30
0.0
  0
SPLINE
  5
1ef
100
AcDbEntity
  8
0
 62
7
100
AcDbSpline
 70
8
 71
3
 72
8
 73
4
 74
0
 40
0
 40
0
 40
0
 40
0
 40
1
 40
1
 40
1
 40
1
 10
3540.962685
 20
1146.912525
 30
0.0
 10
3595.009452
 20
1092.865758
 30
0.0
 10
3676.291413
 20
1076.697771
 30
0.0
 10
3746.906917
 20
1105.947670
 30
0.0
  0
SPLINE
  5
1f0
100
AcDbEntity
  8
0
 62
7
100
AcDbSpline
 70
8
 71
3
 72
8
 73
4
 74
0
 40
0
 40
0
 40
0
 40
0
 40
1
 40
1
 40
1
 40
1
 10
3746.906917
 20
1105.947670
 30
0.0
 10
3817.522421
 20
1135.197570
 30
0.0
 10
3863.564954
 20
1204.105089
 30
0.0
 10
3863.564954
 20
1280.538760
 30
0.0
  0
SPLINE
  5
1f1
100
AcDbEntity
  8
0
 62
7
100
AcDbSpline
 70
8
 71
3
 72
8
 73
4
 74
0
 40
0
 40
0
 40
0
 40
0
 40
1
 40
1
 40
1
 40
1
 10
3863.564954
 20
1280.538760
 30
0.0
 10
3863.564954
 20
1330.658320
 30
0.0
 10
3843.655036
 20
1378.725114
 30
0.0
 10
3808.215155
 20
1414.164995
 30
0.0
  0
SPLINE
  5
1f2
100
AcDbEntity
  8
0
 62
7
100
AcDbSpline
 70
8
 71
3
 72
8
 73
4
 74
0
 40
0
 40
0
 40
0
 40
0
 40
1
 40
1
 40
1
 40
1
 10
3808.215155
 20
1414.164995
 30
0.0
 10
3772.775274
 20
1449.604876
 30
0.0
 10
3724.708480
 20
1469.514794
 30
0.0
 10
3674.588920
 20
1469.514794
 30
0.0
  0
LWPOLYLINE
  5
1f3
100
AcDbEntity
  8
0
 62
7
100
AcDbPolyline
 90
1
 70
1
 10
3430.925280
 20
159.442893
 30
0.0
  0
SPLINE
  5
1f4
100
AcDbEntity
  8
0
 62
7
100
AcDbSpline
 70
8
 71
3
 72
8
 73
4
 74
0
 40
0
 40
0
 40
0
 40
0
 40
1
 40
1
 40
1
 40
1
 10
3735.352920
 20
-1093.510483
 30
0.0
 10
3658.919249
 20
-1093.510483
 30
0.0
 10
3590.011730
 20
-1139.553016
 30
0.0
 10
3560.761830
 20
-1210.168520
 30
0.0
  0
SPLINE
  5
1f5
100
AcDbEntity
  8
0
 62
7
100
AcDbSpline
 70
8
 71
3
 72
8
 73
4
 74
0
 40
0
 40
0
 40
0
 40
0
 40
1
 40
1
 40
1
 40
1
 10
3560.761830
 20
-1210.168520
 30
0.0
 10
3531.511931
 20
-1280.784024
 30
0.0
 10
3547.679918
 20
-1362.065985
 30
0.0
 10
3601.726685
 20
-1416.112752
 30
0.0
  0
SPLINE
  5
1f6
100
AcDbEntity
  8
0
 62
7
100
AcDbSpline
 70
8
 71
3
 72
8
 73
4
 74
0
 40
0
 40
0
 40
0
 40
0
 40
1
 40
1
 40
1
 40
1
 10
3601.726685
 20
-1416.112752
 30
0.0
 10
3655.773452
 20
-1470.159519
 30
0.0
 10
3737.055413
 20
-1486.327506
 30
0.0
 10
3807.670917
 20
-1457.077607
 30
0.0
  0
SPLINE
  5
1f7
100
AcDbEntity
  8
0
 62
7
100
AcDbSpline
 70
8
 71
3
 72
8
 73
4
 74
0
 40
0
 40
0
 40
0
 40
0
 40
1
 40
1
 40
1
 40
1
 10
3807.670917
 20
-1457.077607
 30
0.0
 10
3878.286421
 20
-1427.827707
 30
0.0
 10
3924.328954
 20
-1358.920188
 30
0.0
 10
3924.328954
 20
-1282.486517
 30
0.0
  0
SPLINE
  5
1f8
100
AcDbEntity
  8
0
 62
7
100
AcDbSpline
 70
8
 71
3
 72
8
 73
4
 74
0
 40
0
 40
0
 40
0
 40
0
 40
1
 40
1
 40
1
 40
1
 10
3924.328954
 20
-1282.486517
 30
0.0
 10
3924.328954
 20
-1232.366957
 30
0.0
 10
3904.419036
 20
-1184.300163
 30
0.0
 10
3868.979155
 20
-1148.860282
 30
0.0
  0
SPLINE
  5
1f9
100
AcDbEntity
  8
0
 62
7
100
AcDbSpline
 70
8
 71
3
 72
8
 73
4
 74
0
 40
0
 40
0
 40
0
 40
0
 40
1
 40
1
 40
1
 40
1
 10
3868.979155
 20
-1148.860282
 30
0.0
 10
3833.539274
 20
-1113.420401
 30
0.0
 10
3785.472480
 20
-1093.510483
 30
0.0
 10
3735.352920
 20
-1093.510483
 30
0.0
  0
LWPOLYLINE
  5
1fa
100
AcDbEntity
  8
0
 62
7
100
AcDbPolyline
 90
1
 70
1
 10
3674.588920
 20
1469.514794
 30
0.0
  0
LWPOLYLINE
  5
1fb
100
AcDbEntity
  8
0
 62
7
100
AcDbPolyline
 90
1
 70
1
 10
3735.352920
 20
-1093.510483
 30
0.0
  0
SPLINE
  5
1fc
100
AcDbEntity
  8
0
 62
7
100
AcDbSpline
 70
8
 71
3
 72
8
 73
4
 74
0
 40
0
 40
0
 40
0
 40
0
 40
1
 40
1
 40
1
 40
1
 10
8433.626008
 20
1012.569514
 30
0.0
 10
8357.438104
 20
1012.569514
 30
0.0
 10
8288.752152
 20
966.675028
 30
0.0
 10
8259.596304
 20
896.286584
 30
0.0
  0
SPLINE
  5
1fd
100
AcDbEntity
  8
0
 62
7
100
AcDbSpline
 70
8
 71
3
 72
8
 73
4
 74
0
 40
0
 40
0
 40
0
 40
0
 40
1
 40
1
 40
1
 40
1
 10
8259.596304
 20
896.286584
 30
0.0
 10
8230.440456
 20
825.898139
 30
0.0
 10
8246.556456
 20
744.877534
 30
0.0
 10
8300.429439
 20
691.004551
 30
0.0
  0
SPLINE
  5
1fe
100
AcDbEntity
  8
0
 62
7
100
AcDbSpline
 70
8
 71
3
 72
8
 73
4
 74
0
 40
0
 40
0
 40
0
 40
0
 40
1
 40
1
 40
1
 40
1
 10
8300.429439
 20
691.004551
 30
0.0
 10
8354.302422
 20
637.131568
 30
0.0
 10
8435.323027
 20
621.015568
 30
0.0
 10
8505.711471
 20
650.171416
 30
0.0
  0
SPLINE
  5
1ff
100
AcDbEntity
  8
0
 62
7
100
AcDbSpline
 70
8
 71
3
 72
8
 73
4
 74
0
 40
0
 40
0
 40
0
 40
0
 40
1
 40
1
 40
1
 40
1
 10
8505.711471
 20
650.171416
 30
0.0
 10
8576.099916
 20
679.327265
 30
0.0
 10
8621.994402
 20
748.013217
 30
0.0
 10
8621.994402
 20
824.201120
 30
0.0
  0
SPLINE
  5
200
100
AcDbEntity
  8
0
 62
7
100
AcDbSpline
 70
8
 71
3
 72
8
 73
4
 74
0
 40
0
 40
0
 40
0
 40
0
 40
1
 40
1
 40
1
 40
1
 10
8621.994402
 20
824.201120
 30
0.0
 10
8621.994402
 20
874.159524
 30
0.0
 10
8602.148503
 20
922.071762
 30
0.0
 10
8566.822576
 20
957.397689
 30
0.0
  0
SPLINE
  5
201
100
AcDbEntity
  8
0
 62
7
100
AcDbSpline
 70
8
 71
3
 72
8
 73
4
 74
0
 40
0
 40
0
 40
0
 40
0
 40
1
 40
1
 40
1
 40
1
 10
8566.822576
 20
957.397689
 30
0.0
 10
8531.496650
 20
992.723615
 30
0.0
 10
8483.584412
 20
1012.569514
 30
0.0
 10
8433.626008
 20
1012.569514
 30
0.0
  0
LWPOLYLINE
  5
202
100
AcDbEntity
  8
0
 62
7
100
AcDbPolyline
 90
12
 70
1
 10
9956.978880
 20
-2489.259800
 30
0.0
 10
9170.692720
 20
-2556.707840
 30
0.0
 10
8143.173480
 20
-490.124200
 30
0.0
 10
7803.502720
 20
-1163.996960
 30
0.0
 10
7803.502720
 20
-2410.266600
 30
0.0
 10
6365.826480
 20
-2410.266600
 30
0.0
 10
6365.826480
 20
2359.099760
 30
0.0
 10
7803.502720
 20
2359.099760
 30
0.0
 10
7803.502720
 20
317.429360
 30
0.0
 10
8884.494280
 20
2359.099760
 30
0.0
 10
9625.207440
 20
2359.099760
 30
0.0
 10
8553.330480
 20
311.352960
 30
0.0
  0
SPLINE
  5
203
100
AcDbEntity
  8
0
 62
7
100
AcDbSpline
 70
8
 71
3
 72
8
 73
4
 74
0
 40
0
 40
0
 40
0
 40
0
 40
1
 40
1
 40
1
 40
1
 10
8927.029080
 20
1889.394034
 30
0.0
 10
8850.841177
 20
1889.394034
 30
0.0
 10
8782.155225
 20
1843.499548
 30
0.0
 10
8752.999376
 20
1773.111104
 30
0.0
  0
SPLINE
  5
204
100
AcDbEntity
  8
0
 62
7
100
AcDbSpline
 70
8
 71
3
 72
8
 73
4
 74
0
 40
0
 40
0
 40
0
 40
0
 40
1
 40
1
 40
1
 40
1
 10
8752.999376
 20
1773.111104
 30
0.0
 10
8723.843528
 20
1702.722659
 30
0.0
 10
8739.959528
 20
1621.702054
 30
0.0
 10
8793.832511
 20
1567.829071
 30
0.0
  0
SPLINE
  5
205
100
AcDbEntity
  8
0
 62
7
100
AcDbSpline
 70
8
 71
3
 72
8
 73
4
 74
0
 40
0
 40
0
 40
0
 40
0
 40
1
 40
1
 40
1
 40
1
 10
8793.832511
 20
1567.829071
 30
0.0
 10
8847.705494
 20
1513.956088
 30
0.0
 10
8928.726099
 20
1497.840088
 30
0.0
 10
8999.114544
 20
1526.995936
 30
0.0
  0
SPLINE
  5
206
100
AcDbEntity
  8
0
 62
7
100
AcDbSpline
 70
8
 71
3
 72
8
 73
4
 74
0
 40
0
 40
0
 40
0
 40
0
 40
1
 40
1
 40
1
 40
1
 10
8999.114544
 20
1526.995936
 30
0.0
 10
9069.502988
 20
1556.151785
 30
0.0
 10
9115.397474
 20
1624.837737
 30
0.0
 10
9115.397474
 20
1701.025640
 30
0.0
  0
SPLINE
  5
207
100
AcDbEntity
  8
0
 62
7
100
AcDbSpline
 70
8
 71
3
 72
8
 73
4
 74
0
 40
0
 40
0
 40
0
 40
0
 40
1
 40
1
 40
1
 40
1
 10
9115.397474
 20
1701.025640
 30
0.0
 10
9115.397474
 20
1750.984044
 30
0.0
 10
9095.551575
 20
1798.896282
 30
0.0
 10
9060.225649
 20
1834.222209
 30
0.0
  0
SPLINE
  5
208
100
AcDbEntity
  8
0
 62
7
100
AcDbSpline
 70
8
 71
3
 72
8
 73
4
 74
0
 40
0
 40
0
 40
0
 40
0
 40
1
 40
1
 40
1
 40
1
 10
9060.225649
 20
1834.222209
 30
0.0
 10
9024.899722
 20
1869.548135
 30
0.0
 10
8976.987484
 20
1889.394034
 30
0.0
 10
8927.029080
 20
1889.394034
 30
0.0
  0
LWPOLYLINE
  5
209
100
AcDbEntity
  8
0
 62
7
100
AcDbPolyline
 90
1
 70
1
 10
8433.626008
 20
1012.569514
 30
0.0
  0
SPLINE
  5
20a
100
AcDbEntity
  8
0
 62
7
100
AcDbSpline
 70
8
 71
3
 72
8
 73
4
 74
0
 40
0
 40
0
 40
0
 40
0
 40
1
 40
1
 40
1
 40
1
 10
7963.919680
 20
85.310874
 30
0.0
 10
7887.731777
 20
85.310874
 30
0.0
 10
7819.045825
 20
39.416388
 30
0.0
 10
7789.889976
 20
-30.972056
 30
0.0
  0
SPLINE
  5
20b
100
AcDbEntity
  8
0
 62
7
100
AcDbSpline
 70
8
 71
3
 72
8
 73
4
 74
0
 40
0
 40
0
 40
0
 40
0
 40
1
 40
1
 40
1
 40
1
 10
7789.889976
 20
-30.972056
 30
0.0
 10
7760.734128
 20
-101.360501
 30
0.0
 10
7776.850128
 20
-182.381106
 30
0.0
 10
7830.723111
 20
-236.254089
 30
0.0
  0
SPLINE
  5
20c
100
AcDbEntity
  8
0
 62
7
100
AcDbSpline
 70
8
 71
3
 72
8
 73
4
 74
0
 40
0
 40
0
 40
0
 40
0
 40
1
 40
1
 40
1
 40
1
 10
7830.723111
 20
-236.254089
 30
0.0
 10
7884.596094
 20
-290.127072
 30
0.0
 10
7965.616699
 20
-306.243072
 30
0.0
 10
8036.005144
 20
-277.087224
 30
0.0
  0
SPLINE
  5
20d
100
AcDbEntity
  8
0
 62
7
100
AcDbSpline
 70
8
 71
3
 72
8
 73
4
 74
0
 40
0
 40
0
 40
0
 40
0
 40
1
 40
1
 40
1
 40
1
 10
8036.005144
 20
-277.087224
 30
0.0
 10
8106.393588
 20
-247.931375
 30
0.0
 10
8152.288074
 20
-179.245423
 30
0.0
 10
8152.288074
 20
-103.057520
 30
0.0
  0
SPLINE
  5
20e
100
AcDbEntity
  8
0
 62
7
100
AcDbSpline
 70
8
 71
3
 72
8
 73
4
 74
0
 40
0
 40
0
 40
0
 40
0
 40
1
 40
1
 40
1
 40
1
 10
8152.288074
 20
-103.057520
 30
0.0
 10
8152.288074
 20
-53.099116
 30
0.0
 10
8132.442175
 20
-5.186878
 30
0.0
 10
8097.116249
 20
30.139049
 30
0.0
  0
SPLINE
  5
20f
100
AcDbEntity
  8
0
 62
7
100
AcDbSpline
 70
8
 71
3
 72
8
 73
4
 74
0
 40
0
 40
0
 40
0
 40
0
 40
1
 40
1
 40
1
 40
1
 10
8097.116249
 20
30.139049
 30
0.0
 10
8061.790322
 20
65.464975
 30
0.0
 10
8013.878084
 20
85.310874
 30
0.0
 10
7963.919680
 20
85.310874
 30
0.0
  0
LWPOLYLINE
  5
210
100
AcDbEntity
  8
0
 62
7
100
AcDbPolyline
 90
1
 70
1
 10
8927.029080
 20
1889.394034
 30
0.0
  0
SPLINE
  5
211
100
AcDbEntity
  8
0
 62
7
100
AcDbSpline
 70
8
 71
3
 72
8
 73
4
 74
0
 40
0
 40
0
 40
0
 40
0
 40
1
 40
1
 40
1
 40
1
 10
6991.695680
 20
-1654.970086
 30
0.0
 10
6915.507777
 20
-1654.970086
 30
0.0
 10
6846.821825
 20
-1700.864572
 30
0.0
 10
6817.665976
 20
-1771.253016
 30
0.0
  0
SPLINE
  5
212
100
AcDbEntity
  8
0
 62
7
100
AcDbSpline
 70
8
 71
3
 72
8
 73
4
 74
0
 40
0
 40
0
 40
0
 40
0
 40
1
 40
1
 40
1
 40
1
 10
6817.665976
 20
-1771.253016
 30
0.0
 10
6788.510128
 20
-1841.641461
 30
0.0
 10
6804.626128
 20
-1922.662066
 30
0.0
 10
6858.499111
 20
-1976.535049
 30
0.0
  0
SPLINE
  5
213
100
AcDbEntity
  8
0
 62
7
100
AcDbSpline
 70
8
 71
3
 72
8
 73
4
 74
0
 40
0
 40
0
 40
0
 40
0
 40
1
 40
1
 40
1
 40
1
 10
6858.499111
 20
-1976.535049
 30
0.0
 10
6912.372094
 20
-2030.408032
 30
0.0
 10
6993.392699
 20
-2046.524032
 30
0.0
 10
7063.781144
 20
-2017.368184
 30
0.0
  0
SPLINE
  5
214
100
AcDbEntity
  8
0
 62
7
100
AcDbSpline
 70
8
 71
3
 72
8
 73
4
 74
0
 40
0
 40
0
 40
0
 40
0
 40
1
 40
1
 40
1
 40
1
 10
7063.781144
 20
-2017.368184
 30
0.0
 10
7134.169588
 20
-1988.212335
 30
0.0
 10
7180.064074
 20
-1919.526383
 30
0.0
 10
7180.064074
 20
-1843.338480
 30
0.0
  0
SPLINE
  5
215
100
AcDbEntity
  8
0
 62
7
100
AcDbSpline
 70
8
 71
3
 72
8
 73
4
 74
0
 40
0
 40
0
 40
0
 40
0
 40
1
 40
1
 40
1
 40
1
 10
7180.064074
 20
-1843.338480
 30
0.0
 10
7180.064074
 20
-1793.380076
 30
0.0
 10
7160.218175
 20
-1745.467838
 30
0.0
 10
7124.892249
 20
-1710.141911
 30
0.0
  0
SPLINE
  5
216
100
AcDbEntity
  8
0
 62
7
100
AcDbSpline
 70
8
 71
3
 72
8
 73
4
 74
0
 40
0
 40
0
 40
0
 40
0
 40
1
 40
1
 40
1
 40
1
 10
7124.892249
 20
-1710.141911
 30
0.0
 10
7089.566322
 20
-1674.815985
 30
0.0
 10
7041.654084
 20
-1654.970086
 30
0.0
 10
6991.695680
 20
-1654.970086
 30
0.0
  0
LWPOLYLINE
  5
217
100
AcDbEntity
  8
0
 62
7
100
AcDbPolyline
 90
1
 70
1
 10
7963.919680
 20
85.310874
 30
0.0
  0
SPLINE
  5
218
100
AcDbEntity
  8
0
 62
7
100
AcDbSpline
 70
8
 71
3
 72
8
 73
4
 74
0
 40
0
 40
0
 40
0
 40
0
 40
1
 40
1
 40
1
 40
1
 10
6991.695680
 20
844.860874
 30
0.0
 10
6915.507777
 20
844.860874
 30
0.0
 10
6846.821825
 20
798.966388
 30
0.0
 10
6817.665976
 20
728.577944
 30
0.0
  0
SPLINE
  5
219
100
AcDbEntity
  8
0
 62
7
100
AcDbSpline
 70
8
 71
3
 72
8
 73
4
 74
0
 40
0
 40
0
 40
0
 40
0
 40
1
 40
1
 40
1
 40
1
 10
6817.665976
 20
728.577944
 30
0.0
 10
6788.510128
 20
658.189499
 30
0.0
 10
6804.626128
 20
577.168894
 30
0.0
 10
6858.499111
 20
523.295911
 30
0.0
  0
SPLINE
  5
21a
100
AcDbEntity
  8
0
 62
7
100
AcDbSpline
 70
8
 71
3
 72
8
 73
4
 74
0
 40
0
 40
0
 40
0
 40
0
 40
1
 40
1
 40
1
 40
1
 10
6858.499111
 20
523.295911
 30
0.0
 10
6912.372094
 20
469.422928
 30
0.0
 10
6993.392699
 20
453.306928
 30
0.0
 10
7063.781144
 20
482.462776
 30
0.0
  0
SPLINE
  5
21b
100
AcDbEntity
  8
0
 62
7
100
AcDbSpline
 70
8
 71
3
 72
8
 73
4
 74
0
 40
0
 40
0
 40
0
 40
0
 40
1
 40
1
 40
1
 40
1
 10
7063.781144
 20
482.462776
 30
0.0
 10
7134.169588
 20
511.618625
 30
0.0
 10
7180.064074
 20
580.304577
 30
0.0
 10
7180.064074
 20
656.492480
 30
0.0
  0
SPLINE
  5
21c
100
AcDbEntity
  8
0
 62
7
100
AcDbSpline
 70
8
 71
3
 72
8
 73
4
 74
0
 40
0
 40
0
 40
0
 40
0
 40
1
 40
1
 40
1
 40
1
 10
7180.064074
 20
656.492480
 30
0.0
 10
7180.064074
 20
706.450884
 30
0.0
 10
7160.218175
 20
754.363122
 30
0.0
 10
7124.892249
 20
789.689049
 30
0.0
  0
SPLINE
  5
21d
100
AcDbEntity
  8
0
 62
7
100
AcDbSpline
 70
8
 71
3
 72
8
 73
4
 74
0
 40
0
 40
0
 40
0
 40
0
 40
1
 40
1
 40
1
 40
1
 10
7124.892249
 20
789.689049
 30
0.0
 10
7089.566322
 20
825.014975
 30
0.0
 10
7041.654084
 20
844.860874
 30
0.0
 10
6991.695680
 20
844.860874
 30
0.0
  0
LWPOLYLINE
  5
21e
100
AcDbEntity
  8
0
 62
7
100
AcDbPolyline
 90
1
 70
1
 10
6991.695680
 20
-1654.970086
 30
0.0
  0
SPLINE
  5
21f
100
AcDbEntity
  8
0
 62
7
100
AcDbSpline
 70
8
 71
3
 72
8
 73
4
 74
0
 40
0
 40
0
 40
0
 40
0
 40
1
 40
1
 40
1
 40
1
 10
6991.695680
 20
1847.466874
 30
0.0
 10
6915.507777
 20
1847.466874
 30
0.0
 10
6846.821825
 20
1801.572388
 30
0.0
 10
6817.665976
 20
1731.183944
 30
0.0
  0
SPLINE
  5
220
100
AcDbEntity
  8
0
 62
7
100
AcDbSpline
 70
8
 71
3
 72
8
 73
4
 74
0
 40
0
 40
0
 40
0
 40
0
 40
1
 40
1
 40
1
 40
1
 10
6817.665976
 20
1731.183944
 30
0.0
 10
6788.510128
 20
1660.795499
 30
0.0
 10
6804.626128
 20
1579.774894
 30
0.0
 10
6858.499111
 20
1525.901911
 30
0.0
  0
SPLINE
  5
221
100
AcDbEntity
  8
0
 62
7
100
AcDbSpline
 70
8
 71
3
 72
8
 73
4
 74
0
 40
0
 40
0
 40
0
 40
0
 40
1
 40
1
 40
1
 40
1
 10
6858.499111
 20
1525.901911
 30
0.0
 10
6912.372094
 20
1472.028928
 30
0.0
 10
6993.392699
 20
1455.912928
 30
0.0
 10
7063.781144
 20
1485.068776
 30
0.0
  0
SPLINE
  5
222
100
AcDbEntity
  8
0
 62
7
100
AcDbSpline
 70
8
 71
3
 72
8
 73
4
 74
0
 40
0
 40
0
 40
0
 40
0
 40
1
 40
1
 40
1
 40
1
 10
7063.781144
 20
1485.068776
 30
0.0
 10
7134.169588
 20
1514.224625
 30
0.0
 10
7180.064074
 20
1582.910577
 30
0.0
 10
7180.064074
 20
1659.098480
 30
0.0
  0
SPLINE
  5
223
100
AcDbEntity
  8
0
 62
7
100
AcDbSpline
 70
8
 71
3
 72
8
 73
4
 74
0
 40
0
 40
0
 40
0
 40
0
 40
1
 40
1
 40
1
 40
1
 10
7180.064074
 20
1659.098480
 30
0.0
 10
7180.064074
 20
1709.056884
 30
0.0
 10
7160.218175
 20
1756.969122
 30
0.0
 10
7124.892249
 20
1792.295049
 30
0.0
  0
SPLINE
  5
224
100
AcDbEntity
  8
0
 62
7
100
AcDbSpline
 70
8
 71
3
 72
8
 73
4
 74
0
 40
0
 40
0
 40
0
 40
0
 40
1
 40
1
 40
1
 40
1
 10
7124.892249
 20
1792.295049
 30
0.0
 10
7089.566322
 20
1827.620975
 30
0.0
 10
7041.654084
 20
1847.466874
 30
0.0
 10
6991.695680
 20
1847.466874
 30
0.0
  0
LWPOLYLINE
  5
225
100
AcDbEntity
  8
0
 62
7
100
AcDbPolyline
 90
1
 70
1
 10
6991.695680
 20
844.860874
 30
0.0
  0
SPLINE
  5
226
100
AcDbEntity
  8
0
 62
7
100
AcDbSpline
 70
8
 71
3
 72
8
 73
4
 74
0
 40
0
 40
0
 40
0
 40
0
 40
1
 40
1
 40
1
 40
1
 10
6991.695680
 20
-405.054606
 30
0.0
 10
6915.507777
 20
-405.054606
 30
0.0
 10
6846.821825
 20
-450.949092
 30
0.0
 10
6817.665976
 20
-521.337536
 30
0.0
  0
SPLINE
  5
227
100
AcDbEntity
  8
0
 62
7
100
AcDbSpline
 70
8
 71
3
 72
8
 73
4
 74
0
 40
0
 40
0
 40
0
 40
0
 40
1
 40
1
 40
1
 40
1
 10
6817.665976
 20
-521.337536
 30
0.0
 10
6788.510128
 20
-591.725981
 30
0.0
 10
6804.626128
 20
-672.746586
 30
0.0
 10
6858.499111
 20
-726.619569
 30
0.0
  0
SPLINE
  5
228
100
AcDbEntity
  8
0
 62
7
100
AcDbSpline
 70
8
 71
3
 72
8
 73
4
 74
0
 40
0
 40
0
 40
0
 40
0
 40
1
 40
1
 40
1
 40
1
 10
6858.499111
 20
-726.619569
 30
0.0
 10
6912.372094
 20
-780.492552
 30
0.0
 10
6993.392699
 20
-796.608552
 30
0.0
 10
7063.781144
 20
-767.452704
 30
0.0
  0
SPLINE
  5
229
100
AcDbEntity
  8
0
 62
7
100
AcDbSpline
 70
8
 71
3
 72
8
 73
4
 74
0
 40
0
 40
0
 40
0
 40
0
 40
1
 40
1
 40
1
 40
1
 10
7063.781144
 20
-767.452704
 30
0.0
 10
7134.169588
 20
-738.296855
 30
0.0
 10
7180.064074
 20
-669.610903
 30
0.0
 10
7180.064074
 20
-593.423000
 30
0.0
  0
SPLINE
  5
22a
100
AcDbEntity
  8
0
 62
7
100
AcDbSpline
 70
8
 71
3
 72
8
 73
4
 74
0
 40
0
 40
0
 40
0
 40
0
 40
1
 40
1
 40
1
 40
1
 10
7180.064074
 20
-593.423000
 30
0.0
 10
7180.064074
 20
-543.464596
 30
0.0
 10
7160.218175
 20
-495.552358
 30
0.0
 10
7124.892249
 20
-460.226431
 30
0.0
  0
SPLINE
  5
22b
100
AcDbEntity
  8
0
 62
7
100
AcDbSpline
 70
8
 71
3
 72
8
 73
4
 74
0
 40
0
 40
0
 40
0
 40
0
 40
1
 40
1
 40
1
 40
1
 10
7124.892249
 20
-460.226431
 30
0.0
 10
7089.566322
 20
-424.900505
 30
0.0
 10
7041.654084
 20
-405.054606
 30
0.0
 10
6991.695680
 20
-405.054606
 30
0.0
  0
LWPOLYLINE
  5
22c
100
AcDbEntity
  8
0
 62
7
100
AcDbPolyline
 90
1
 70
1
 10
6991.695680
 20
1847.466874
 30
0.0
  0
SPLINE
  5
22d
100
AcDbEntity
  8
0
 62
7
100
AcDbSpline
 70
8
 71
3
 72
8
 73
4
 74
0
 40
0
 40
0
 40
0
 40
0
 40
1
 40
1
 40
1
 40
1
 10
9239.963680
 20
-1676.845126
 30
0.0
 10
9163.775777
 20
-1676.845126
 30
0.0
 10
9095.089825
 20
-1722.739612
 30
0.0
 10
9065.933976
 20
-1793.128056
 30
0.0
  0
SPLINE
  5
22e
100
AcDbEntity
  8
0
 62
7
100
AcDbSpline
 70
8
 71
3
 72
8
 73
4
 74
0
 40
0
 40
0
 40
0
 40
0
 40
1
 40
1
 40
1
 40
1
 10
9065.933976
 20
-1793.128056
 30
0.0
 10
9036.778128
 20
-1863.516501
 30
0.0
 10
9052.894128
 20
-1944.537106
 30
0.0
 10
9106.767111
 20
-1998.410089
 30
0.0
  0
SPLINE
  5
22f
100
AcDbEntity
  8
0
 62
7
100
AcDbSpline
 70
8
 71
3
 72
8
 73
4
 74
0
 40
0
 40
0
 40
0
 40
0
 40
1
 40
1
 40
1
 40
1
 10
9106.767111
 20
-1998.410089
 30
0.0
 10
9160.640094
 20
-2052.283072
 30
0.0
 10
9241.660699
 20
-2068.399072
 30
0.0
 10
9312.049144
 20
-2039.243224
 30
0.0
  0
SPLINE
  5
230
100
AcDbEntity
  8
0
 62
7
100
AcDbSpline
 70
8
 71
3
 72
8
 73
4
 74
0
 40
0
 40
0
 40
0
 40
0
 40
1
 40
1
 40
1
 40
1
 10
9312.049144
 20
-2039.243224
 30
0.0
 10
9382.437588
 20
-2010.087375
 30
0.0
 10
9428.332074
 20
-1941.401423
 30
0.0
 10
9428.332074
 20
-1865.213520
 30
0.0
  0
SPLINE
  5
231
100
AcDbEntity
  8
0
 62
7
100
AcDbSpline
 70
8
 71
3
 72
8
 73
4
 74
0
 40
0
 40
0
 40
0
 40
0
 40
1
 40
1
 40
1
 40
1
 10
9428.332074
 20
-1865.213520
 30
0.0
 10
9428.332074
 20
-1815.255116
 30
0.0
 10
9408.486175
 20
-1767.342878
 30
0.0
 10
9373.160249
 20
-1732.016951
 30
0.0
  0
SPLINE
  5
232
100
AcDbEntity
  8
0
 62
7
100
AcDbSpline
 70
8
 71
3
 72
8
 73
4
 74
0
 40
0
 40
0
 40
0
 40
0
 40
1
 40
1
 40
1
 40
1
 10
9373.160249
 20
-1732.016951
 30
0.0
 10
9337.834322
 20
-1696.691025
 30
0.0
 10
9289.922084
 20
-1676.845126
 30
0.0
 10
9239.963680
 20
-1676.845126
 30
0.0
  0
LWPOLYLINE
  5
233
100
AcDbEntity
  8
0
 62
7
100
AcDbPolyline
 90
1
 70
1
 10
6991.695680
 20
-405.054606
 30
0.0
  0
SPLINE
  5
234
100
AcDbEntity
  8
0
 62
7
100
AcDbSpline
 70
8
 71
3
 72
8
 73
4
 74
0
 40
0
 40
0
 40
0
 40
0
 40
1
 40
1
 40
1
 40
1
 10
8753.851680
 20
-704.621126
 30
0.0
 10
8677.663777
 20
-704.621126
 30
0.0
 10
8608.977825
 20
-750.515612
 30
0.0
 10
8579.821976
 20
-820.904056
 30
0.0
  0
SPLINE
  5
235
100
AcDbEntity
  8
0
 62
7
100
AcDbSpline
 70
8
 71
3
 72
8
 73
4
 74
0
 40
0
 40
0
 40
0
 40
0
 40
1
 40
1
 40
1
 40
1
 10
8579.821976
 20
-820.904056
 30
0.0
 10
8550.666128
 20
-891.292501
 30
0.0
 10
8566.782128
 20
-972.313106
 30
0.0
 10
8620.655111
 20
-1026.186089
 30
0.0
  0
SPLINE
  5
236
100
AcDbEntity
  8
0
 62
7
100
AcDbSpline
 70
8
 71
3
 72
8
 73
4
 74
0
 40
0
 40
0
 40
0
 40
0
 40
1
 40
1
 40
1
 40
1
 10
8620.655111
 20
-1026.186089
 30
0.0
 10
8674.528094
 20
-1080.059072
 30
0.0
 10
8755.548699
 20
-1096.175072
 30
0.0
 10
8825.937144
 20
-1067.019224
 30
0.0
  0
SPLINE
  5
237
100
AcDbEntity
  8
0
 62
7
100
AcDbSpline
 70
8
 71
3
 72
8
 73
4
 74
0
 40
0
 40
0
 40
0
 40
0
 40
1
 40
1
 40
1
 40
1
 10
8825.937144
 20
-1067.019224
 30
0.0
 10
8896.325588
 20
-1037.863375
 30
0.0
 10
8942.220074
 20
-969.177423
 30
0.0
 10
8942.220074
 20
-892.989520
 30
0.0
  0
SPLINE
  5
238
100
AcDbEntity
  8
0
 62
7
100
AcDbSpline
 70
8
 71
3
 72
8
 73
4
 74
0
 40
0
 40
0
 40
0
 40
0
 40
1
 40
1
 40
1
 40
1
 10
8942.220074
 20
-892.989520
 30
0.0
 10
8942.220074
 20
-843.031116
 30
0.0
 10
8922.374175
 20
-795.118878
 30
0.0
 10
8887.048249
 20
-759.792951
 30
0.0
  0
SPLINE
  5
239
100
AcDbEntity
  8
0
 62
7
100
AcDbSpline
 70
8
 71
3
 72
8
 73
4
 74
0
 40
0
 40
0
 40
0
 40
0
 40
1
 40
1
 40
1
 40
1
 10
8887.048249
 20
-759.792951
 30
0.0
 10
8851.722322
 20
-724.467025
 30
0.0
 10
8803.810084
 20
-704.621126
 30
0.0
 10
8753.851680
 20
-704.621126
 30
0.0
  0
LWPOLYLINE
  5
23a
100
AcDbEntity
  8
0
 62
7
100
AcDbPolyline
 90
1
 70
1
 10
9239.963680
 20
-1676.845126
 30
0.0
  0
LWPOLYLINE
  5
23b
100
AcDbEntity
  8
0
 62
7
100
AcDbPolyline
 90
1
 70
1
 10
8753.851680
 20
-704.621126
 30
0.0
  0
ENDSEC
  0
SECTION
  2
OBJECTS
  0
DICTIONARY
  5
C
330
0
100
AcDbDictionary
  3
ACAD_GROUP
350
D
  3
ACAD_MLINESTYLE
350
17
  0
DICTIONARY
  5
D
330
C
100
AcDbDictionary
  0
DICTIONARY
  5
1A
330
C
100
AcDbDictionary
  0
DICTIONARY
  5
17
330
C
100
AcDbDictionary
  3
STANDARD
350
18
  0
DICTIONARY
  5
19
330
C
100
AcDbDictionary
  0
ENDSEC
  0
EOF
