<?xml version="1.0" encoding="UTF-8" standalone="no"?>
<svg
        id="Layer_1"
        data-name="Layer 1"
        viewBox="0 0 322.42 85.56"
        version="1.1"
        sodipodi:docname="la100k-3-inkscape.svg"
        inkscape:version="1.2.2 (732a01da63, 2022-12-09)"
        xmlns:inkscape="http://www.inkscape.org/namespaces/inkscape"
        xmlns:sodipodi="http://sodipodi.sourceforge.net/DTD/sodipodi-0.dtd"
        xmlns="http://www.w3.org/2000/svg"
        xmlns:svg="http://www.w3.org/2000/svg">
    <sodipodi:namedview
            id="namedview4765"
            pagecolor="#ffffff"
            bordercolor="#000000"
            borderopacity="0.25"
            inkscape:showpageshadow="2"
            inkscape:pageopacity="0.0"
            inkscape:pagecheckerboard="0"
            inkscape:deskcolor="#d1d1d1"
            showgrid="false"
            inkscape:zoom="4.0475155"
            inkscape:cx="161.08647"
            inkscape:cy="23.100591"
            inkscape:window-width="1920"
            inkscape:window-height="991"
            inkscape:window-x="-9"
            inkscape:window-y="-9"
            inkscape:window-maximized="1"
            inkscape:current-layer="Layer_1"/>
    <defs id="defs4706">
        <style
                id="style4704">
            .cls-1 {
            fill: #fbb040;
            }

            .cls-2 {
            fill: #231f20;
            }
        </style>
    </defs>
    <g id="group_text">
        <g>
            <path
                    class="cls-2"
                    d="M 47.03,68.02 L 47.03,82.15 L 0,82.15 L 0,3.66 L 23.66,3.66 L 23.66,68.02 L 47.03,68.02 Z"
                    id="path4708"/>
            <circle
                    id="bulb-31"
                    class="cls-1"
                    cx="9.56"
                    cy="72.53"
                    r="3.11"/>
            <circle
                    id="bulb-32"
                    class="cls-1"
                    cx="9.31"
                    cy="34.12"
                    r="3.11"/>
            <circle
                    id="bulb-33"
                    class="cls-1"
                    cx="9.31"
                    cy="14.46"
                    r="3.11"/>
            <circle
                    id="bulb-34"
                    class="cls-1"
                    cx="9.56"
                    cy="52.82"
                    r="3.11"/>
            <circle
                    id="bulb-35"
                    class="cls-1"
                    cx="32.6"
                    cy="73.17"
                    r="3.11"/>
        </g>
        <g>
            <path
                    class="cls-2"
                    d="M91.96,3.66h-19.81l-21.41,78.49h10.6l3.19-11.83h20.61l3.27,11.83h25.11L91.96,3.66Zm-23.88,53.69l6.75-24.7,6.75,24.7h-13.5Z"
                    id="path4710"/>
            <circle
                    id="bulb-1"
                    class="cls-1"
                    cx="57.43"
                    cy="73.44"
                    r="3.11"/>
            <circle
                    id="bulb-36"
                    class="cls-1"
                    cx="73.7"
                    cy="63.14"
                    r="3.11"/>
            <circle
                    id="bulb-37"
                    class="cls-1"
                    cx="63.68"
                    cy="49.11"
                    r="3.11"/>
            <circle
                    id="bulb-38"
                    class="cls-1"
                    cx="68.69"
                    cy="29.06"
                    r="3.11"/>
            <circle
                    id="bulb-39"
                    class="cls-1"
                    cx="98.34"
                    cy="71.91"
                    r="3.11"/>
            <circle
                    id="bulb-40"
                    class="cls-1"
                    cx="93.02"
                    cy="49.08"
                    r="3.11"/>
            <circle
                    id="bulb-41"
                    class="cls-1"
                    cx="85.64"
                    cy="28.46"
                    r="3.11"/>
            <circle
                    id="bulb-42"
                    class="cls-1"
                    cx="78.71"
                    cy="12.01"
                    r="3.11"/>
        </g>
        <g>
            <path
                    class="cls-2"
                    d="M 141.75,82.15 L 120.05,82.15 L 120.05,17.27 L 141.75,0 L 141.75,82.15 Z"
                    id="path4712"/>
            <circle
                    id="bulb-27"
                    class="cls-1"
                    cx="130.38"
                    cy="72.99"
                    r="3.11"/>
            <circle
                    id="bulb-28"
                    class="cls-1"
                    cx="130.13"
                    cy="37.59"
                    r="3.11"/>
            <circle
                    id="bulb-29"
                    class="cls-1"
                    cx="130.13"
                    cy="19.93"
                    r="3.11"/>
            <circle
                    id="bulb-30"
                    class="cls-1"
                    cx="130.38"
                    cy="56.29"
                    r="3.11"/>
        </g>

        <g>
            <path
                    class="cls-2"
                    d="M193.5,14.23c-5.03-8.51-11.3-12.77-18.8-12.77s-13.84,4.22-18.87,12.66c-4.69,7.88-7.04,17.48-7.04,28.78s2.35,20.9,7.04,28.78c5.03,8.51,11.32,12.77,18.87,12.77s13.72-4.26,18.8-12.77c4.74-7.95,7.11-17.55,7.11-28.78s-2.37-20.72-7.11-28.67Zm-7.48,47.3c-2.95,5.44-6.9,8.41-11.83,8.9V15.49c4.94,.49,8.88,3.42,11.83,8.79,2.95,5.37,4.43,11.58,4.43,18.63s-1.48,13.19-4.43,18.63Z"
                    id="path4714"/>
            <circle
                    id="bulb-19"
                    class="cls-1"
                    cx="195.48"
                    cy="43.84"
                    r="3.11"/>
            <circle
                    id="bulb-20"
                    class="cls-1"
                    cx="189.38"
                    cy="63.8"
                    r="3.11"/>
            <circle
                    id="bulb-21"
                    class="cls-1"
                    cx="175.34"
                    cy="75.83"
                    r="3.11"/>
            <circle
                    id="bulb-22"
                    class="cls-1"
                    cx="191.75"
                    cy="23.05"
                    r="3.11"/>
            <circle
                    id="bulb-23"
                    class="cls-1"
                    cx="175.7"
                    cy="9.01"
                    r="3.11"/>
            <circle
                    id="bulb-24"
                    class="cls-1"
                    cx="157.43"
                    cy="42.79"
                    r="3.11"/>
            <circle
                    id="bulb-25"
                    class="cls-1"
                    cx="161.44"
                    cy="21.24"
                    r="3.11"/>
            <circle
                    id="bulb-26"
                    class="cls-1"
                    cx="162.44"
                    cy="63.41"
                    r="3.11"/>
        </g>
        <g>
            <path
                    class="cls-2"
                    d="M250.04,14.23c-5.03-8.51-11.3-12.77-18.8-12.77s-13.84,4.22-18.87,12.66c-4.69,7.88-7.04,17.48-7.04,28.78s2.35,20.9,7.04,28.78c5.03,8.51,11.32,12.77,18.87,12.77s13.72-4.26,18.8-12.77c4.74-7.95,7.11-17.55,7.11-28.78s-2.37-20.72-7.11-28.67Zm-7.48,47.3c-2.95,5.44-6.9,8.41-11.83,8.9V15.49c4.94,.49,8.88,3.42,11.83,8.79,2.95,5.37,4.43,11.58,4.43,18.63s-1.48,13.19-4.43,18.63Z"
                    id="path4716"/>
            <circle
                    id="bulb-3"
                    class="cls-1"
                    cx="251.35"
                    cy="43.92"
                    r="3.1"/>
            <circle
                    id="bulb-4"
                    class="cls-1"
                    cx="246.97"
                    cy="64.97"
                    r="3.11"/>
            <circle
                    id="bulb-5"
                    class="cls-1"
                    cx="232.93"
                    cy="77"
                    r="3.11"/>
            <circle
                    id="bulb-14"
                    class="cls-1"
                    cx="248.24"
                    cy="23.13"
                    r="3.11"/>
            <circle
                    id="bulb-15"
                    class="cls-1"
                    cx="232.2"
                    cy="9.1"
                    r="3.11"/>
            <circle
                    id="bulb-16"
                    class="cls-1"
                    cx="215.02"
                    cy="43.97"
                    r="3.11"/>
            <circle
                    id="bulb-17"
                    class="cls-1"
                    cx="219.03"
                    cy="22.41"
                    r="3.11"/>
            <circle
                    id="bulb-18"
                    class="cls-1"
                    cx="220.03"
                    cy="64.59"
                    r="3.11"/>

        </g>
        <g>
            <path
                    class="cls-2"
                    d="M 322.42,84.45 L 309.48,85.56 L 292.57,51.55 L 286.98,62.64 L 286.98,83.15 L 263.32,83.15 L 263.32,4.66 L 286.98,4.66 L 286.98,38.26 L 304.77,4.66 L 316.96,4.66 L 299.32,38.36 L 322.42,84.45 Z"
                    id="path4718"/>
            <circle
                    id="bulb-2"
                    class="cls-1"
                    cx="297.35"
                    cy="29.92"
                    r="3.1"/>
            <circle
                    id="bulb-6"
                    class="cls-1"
                    cx="305.47"
                    cy="15.49"
                    r="3.1"/>
            <circle
                    id="bulb-7"
                    class="cls-1"
                    cx="289.62"
                    cy="45.18"
                    r="3.1"/>
            <circle
                    id="bulb-8"
                    class="cls-1"
                    cx="273.62"
                    cy="73.82"
                    r="3.1"/>
            <circle
                    id="bulb-9"
                    class="cls-1"
                    cx="273.62"
                    cy="32.68"
                    r="3.1"/>
            <circle
                    id="bulb-10"
                    class="cls-1"
                    cx="273.62"
                    cy="16.18"
                    r="3.1"/>
            <circle
                    id="bulb-11"
                    class="cls-1"
                    cx="273.62"
                    cy="53.25"
                    r="3.1"/>
            <circle
                    id="bulb-12"
                    class="cls-1"
                    cx="310.62"
                    cy="74.18"
                    r="3.1"/>
            <circle
                    id="bulb-13"
                    class="cls-1"
                    cx="302.62"
                    cy="58.18"
                    r="3.1"/>
        </g>
    </g>
</svg>
